<svg xmlns="http://www.w3.org/2000/svg" width="20" height="20" viewBox="0 0 20 20" fill="none">
  <path d="M15.4648 1.96289H4.53516C3.11523 1.96289 1.96289 3.11523 1.96289 4.53516V15.4648C1.96289 16.8848 3.11523 18.0371 4.53516 18.0371H15.4648C16.8848 18.0371 18.0371 16.8848 18.0371 15.4648V4.53516C18.0371 3.11523 16.8848 1.96289 15.4648 1.96289ZM6.61523 12.3594L6.96289 10.3789C6.9668 10.3555 6.97852 10.334 6.99609 10.3164L11.9863 5.32617C12.0078 5.30469 12.0391 5.29102 12.0703 5.29102C12.1016 5.29102 12.1328 5.30273 12.1543 5.32617L14.1113 7.2832C14.1582 7.33008 14.1582 7.4043 14.1113 7.45117L9.11914 12.4395C9.10156 12.457 9.08008 12.4687 9.05664 12.4727L7.07617 12.8203C6.80469 12.8672 6.56836 12.6309 6.61523 12.3594ZM14.709 14.6152C14.709 14.666 14.666 14.709 14.6152 14.709H5.38477C5.33398 14.709 5.29102 14.666 5.29102 14.6152V14.1914C5.29102 13.9824 5.45898 13.8145 5.66797 13.8145H14.332C14.541 13.8145 14.709 13.9824 14.709 14.1914V14.6152Z" fill="currentColor" />
</svg>