<svg xmlns="http://www.w3.org/2000/svg" width="18" height="18" viewBox="0 0 18 18" fill="none">
  <path fill-rule="evenodd" clip-rule="evenodd" d="M9 1.28571C13.2429 1.28571 16.7143 4.75714 16.7143 9C16.7143 13.2429 13.2429 16.7143 9 16.7143C4.75714 16.7143 1.28571 13.2429 1.28571 9C1.28571 4.75714 4.75714 1.28571 9 1.28571ZM9 0C3.98571 0 0 3.98571 0 9C0 14.0143 3.98571 18 9 18C14.0143 18 18 14.0143 18 9C18 3.98571 14.0143 0 9 0ZM8.99979 3.85742C8.61408 3.85742 8.35693 4.11456 8.35693 4.50028V8.35742H4.49979C4.11408 8.35742 3.85693 8.61456 3.85693 9.00028C3.85693 9.38599 4.11408 9.64314 4.49979 9.64314H8.35693V13.5003C8.35693 13.886 8.61408 14.1431 8.99979 14.1431C9.38551 14.1431 9.64265 13.886 9.64265 13.5003V9.64314H13.4998C13.8855 9.64314 14.1426 9.38599 14.1426 9.00028C14.1426 8.61456 13.8855 8.35742 13.4998 8.35742H9.64265V4.50028C9.64265 4.11456 9.38551 3.85742 8.99979 3.85742Z" fill="currentColor" />
</svg>