<svg xmlns="http://www.w3.org/2000/svg" width="20" height="20" viewBox="0 0 22 22" fill="none">
  <path d="M10 0C4.47715 0 0 4.47715 0 10C0 15.5229 4.47715 20 10 20C15.5229 20 20 15.5229 20 10C20 4.47715 15.5229 0 10 0ZM16.0312 10C16.0305 10.26 15.9268 10.509 15.743 10.6929C15.5592 10.8767 15.3101 10.9803 15.0502 10.981H10.981V15.0502C10.9803 15.3101 10.8767 15.5592 10.6929 15.743C10.509 15.9268 10.26 16.0305 10 16.0312C9.74005 16.0305 9.49096 15.9268 9.30714 15.743C9.12332 15.5592 9.01972 15.3101 9.01895 15.0502V10.981H4.94983C4.68988 10.9803 4.44079 10.8767 4.25697 10.6929C4.07315 10.509 3.96955 10.26 3.96878 10C3.96955 9.74005 4.07315 9.49096 4.25697 9.30714C4.44079 9.12332 4.68988 9.01972 4.94983 9.01895H9.01895V4.94983C9.01972 4.68988 9.12332 4.44079 9.30714 4.25697C9.49096 4.07315 9.74005 3.96955 10 3.96878C10.26 3.96955 10.509 4.07315 10.6929 4.25697C10.8767 4.44079 10.9803 4.68988 10.981 4.94983V9.01895H15.0502C15.3101 9.01972 15.5592 9.12332 15.743 9.30714C15.9268 9.49096 16.0305 9.74005 16.0312 10Z" fill="currentColor"/>
</svg>