<svg xmlns="http://www.w3.org/2000/svg" width="20" height="20" viewBox="0 0 20 20" fill="none">
  <path fill-rule="evenodd" clip-rule="evenodd" d="M17 0C18.6569 0 20 1.34315 20 3V17C20 18.6569 18.6569 20 17 20H3C1.34315 20 0 18.6569 0 17V3C0 1.34315 1.34315 0 3 0H17ZM17 1H3C1.94564 1 1.08183 1.81588 1.00549 2.85074L1 3V17C1 18.0544 1.81588 18.9182 2.85074 18.9945L3 19H17C18.0544 19 18.9182 18.1841 18.9945 17.1493L19 17V3C19 1.94564 18.1841 1.08183 17.1493 1.00549L17 1ZM9.25 5H10.75V9.25H15V10.75H10.75V15H9.25V10.75H5V9.25H9.25V5Z" fill="currentColor"/>
</svg>