<svg xmlns="http://www.w3.org/2000/svg" width="20" height="20" viewBox="0 0 20 20" fill="none">
  <path d="M14.8218 8.03411L5.84599 17.1111H2V13.2214L10.9758 4.14435L14.8218 8.03411ZM15.5759 7.27148L11.7305 3.38172L12.7844 2.31578C12.9844 2.11358 13.2555 2 13.5383 2C13.821 2 14.0921 2.11358 14.2921 2.31578L14.2927 2.31524L16.6304 4.67813C16.7295 4.77837 16.8081 4.89739 16.8617 5.02838C16.9153 5.15937 16.9429 5.29977 16.9429 5.44156C16.9429 5.58335 16.9153 5.72375 16.8617 5.85475C16.8081 5.98574 16.7295 6.10475 16.6304 6.205L15.5759 7.27148ZM10.5336 14.9447H16.9338C17.2166 14.9447 17.4878 15.0583 17.6877 15.2607C17.8877 15.463 18 15.7374 18 16.0236C18 16.3097 17.8877 16.5841 17.6877 16.7865C17.4878 16.9888 17.2166 17.1025 16.9338 17.1025H10.5336C10.2509 17.1025 9.97967 16.9888 9.77972 16.7865C9.57978 16.5841 9.46745 16.3097 9.46745 16.0236C9.46745 15.7374 9.57978 15.463 9.77972 15.2607C9.97967 15.0583 10.2509 14.9447 10.5336 14.9447Z" fill="currentColor" />
</svg>