<svg xmlns="http://www.w3.org/2000/svg" width="28" height="34" viewBox="0 0 28 34" fill="currentColor">
<path d="M5.06058 24.9528C5.06058 26.0895 5.95824 27.0151 7.06309 27.0151H8.5088C8.45888 27.1913 8.43342 27.3735 8.43312 27.5566V31.6795C8.43312 32.7574 9.2832 33.6327 10.3307 33.6327C11.3787 33.6327 12.2286 32.7576 12.2286 31.6795V27.557C12.2286 27.3688 12.2009 27.187 12.1529 27.0153H15.677C15.6271 27.1915 15.6016 27.3737 15.6013 27.5568V31.6797C15.6013 32.7576 16.4512 33.6329 17.4989 33.6329C18.5465 33.6329 19.3968 32.7578 19.3968 31.6797V27.557C19.3968 27.3688 19.369 27.187 19.3206 27.0153H20.7663C21.8717 27.0153 22.769 26.0902 22.769 24.9529V10.6322H5.05974V24.9528H5.06058ZM1.8974 10.6322C0.8494 10.6322 0 11.5063 0 12.5847V20.9382C0 22.0166 0.8494 22.8907 1.89757 22.8907C2.94507 22.8907 3.79497 22.0166 3.79497 20.9382V12.5852C3.79497 11.5061 2.94507 10.632 1.89757 10.632L1.8974 10.6322ZM25.931 10.6322C24.8828 10.6322 24.0341 11.5063 24.0341 12.5847V20.9382C24.0341 22.0166 24.8828 22.8907 25.931 22.8907C26.9792 22.8907 27.8279 22.0166 27.8279 20.9382V12.5852C27.8279 11.5061 26.979 10.632 25.931 10.632V10.6322ZM18.2684 2.81622L18.6246 2.26632L18.9755 1.72399L19.7646 0.50648C19.8613 0.356645 19.8212 0.155016 19.6773 0.0551257C19.6428 0.031334 19.6038 0.0147667 19.5627 0.0064196C19.5216 -0.0019275 19.4793 -0.00188199 19.4382 0.00655339C19.3972 0.0149888 19.3582 0.0316398 19.3238 0.0555057C19.2893 0.0793715 19.26 0.109959 19.2377 0.14543L18.3928 1.45089L18.0367 1.99978L17.6763 2.55624C16.5333 2.10018 15.2588 1.8444 13.9139 1.8444C12.5696 1.8444 11.2946 2.10018 10.1526 2.55574L9.79274 1.99928L9.43757 1.45039L8.59069 0.144926C8.56834 0.109544 8.53907 0.0790376 8.50465 0.0552315C8.47023 0.0314254 8.43136 0.0148094 8.39036 0.00637814C8.34937 -0.00205308 8.3071 -0.00212616 8.26607 0.00616328C8.22505 0.0144527 8.18612 0.0309342 8.15162 0.0546212C8.00699 0.154343 7.96714 0.356141 8.06434 0.505807L8.85236 1.72349L9.20382 2.26565L9.56 2.81555C6.87609 4.10218 5.05991 6.53973 5.05991 9.32975H22.7678C22.7685 6.54023 20.9523 4.10285 18.2684 2.81622ZM10.12 6.72673C9.59565 6.72673 9.1712 6.28916 9.1712 5.75019C9.1712 5.21122 9.59565 4.77467 10.12 4.77467C10.6438 4.77467 11.0688 5.21122 11.0688 5.75019C11.0688 6.28916 10.6438 6.72673 10.1198 6.72673H10.12ZM17.7094 6.72673C17.1853 6.72673 16.7606 6.28916 16.7606 5.75019C16.7606 5.21122 17.1853 4.77467 17.7094 4.77467C18.2336 4.77467 18.6577 5.21122 18.6577 5.75019C18.6577 6.28916 18.2338 6.72673 17.7094 6.72673Z" />
</svg>