<svg xmlns="http://www.w3.org/2000/svg" width="18" height="18" viewBox="0 0 18 18" fill="none">
<path d="M12.8033 1.19634C12.6774 1.07062 12.5068 1 12.3288 1C12.1509 1 11.9802 1.07062 11.8543 1.19634L3.86557 8.49306C3.72529 8.63291 3.66628 8.81777 3.67538 9.00022C3.66619 9.18251 3.72529 9.36788 3.86557 9.5073L11.8544 16.804C11.9804 16.9295 12.151 17 12.3289 17C12.5067 17 12.6773 16.9295 12.8033 16.804C12.8657 16.7419 12.9151 16.6681 12.9489 16.5869C12.9826 16.5057 13 16.4185 13 16.3306C13 16.2426 12.9826 16.1555 12.9489 16.0742C12.9151 15.993 12.8657 15.9192 12.8033 15.8571L5.296 9.00014L12.8033 2.1428C12.8657 2.08077 12.9151 2.00703 12.9489 1.92583C12.9826 1.84462 13 1.75755 13 1.66962C13 1.58168 12.9826 1.49461 12.9489 1.4134C12.9151 1.3322 12.8657 1.25846 12.8033 1.19643V1.19634Z" fill="currentColor" stroke="currentColor" stroke-width="0.2"/>
</svg>