<svg xmlns="http://www.w3.org/2000/svg" width="20" height="20" viewBox="0 0 20 20" fill="none">
  <path d="M10 1.25C5.17501 1.25 1.25 5.17501 1.25 10C1.25 14.825 5.17501 18.75 10 18.75C14.825 18.75 18.75 14.825 18.75 10C18.75 5.17501 14.825 1.25 10 1.25ZM10 16.2569C9.4825 16.2569 9.06249 15.8369 9.06249 15.3194C9.06249 14.8019 9.4825 14.3819 10 14.3819C10.5175 14.3819 10.9375 14.8019 10.9375 15.3194C10.9375 15.8369 10.5175 16.2569 10 16.2569ZM11.73 9.86689C11.1863 10.41 10.625 10.9713 10.625 11.4756V12.5325C10.625 12.8775 10.345 13.1575 10 13.1575C9.65499 13.1575 9.37498 12.8775 9.37498 12.5325V11.4756C9.37498 10.4531 10.1562 9.67189 10.8462 8.98253C11.3518 8.47692 11.875 7.95441 11.875 7.53753C11.875 6.49567 11.0337 5.64817 10 5.64817C8.94876 5.64817 8.12502 6.45941 8.12502 7.49503C8.12502 7.84004 7.84501 8.12001 7.5 8.12001C7.15499 8.12001 6.87498 7.84001 6.87498 7.49503C6.87498 5.78753 8.27684 4.39817 10 4.39817C11.7232 4.39817 13.125 5.80628 13.125 7.53753C13.125 8.47248 12.4156 9.18126 11.73 9.86689Z" fill="currentColor" />
</svg>