<svg xmlns="http://www.w3.org/2000/svg" width="13" height="13" viewBox="0 0 13 13" fill="none">
  <path d="M11.9409 2.14705L11.0487 2.53966C10.9094 2.39762 10.763 2.26095 10.6096 2.13365C9.35719 1.08579 7.75433 0.575266 6.11066 0.693184C4.46136 0.811101 2.95841 1.54406 1.87764 2.75807C0.799686 3.97074 0.271966 5.51975 0.39299 7.11967C0.515421 8.71825 1.27252 10.1761 2.52498 11.224C3.69159 12.1995 5.13121 12.6765 6.56238 12.6765C8.30175 12.6779 10.0327 11.973 11.2556 10.5996C11.5272 10.2941 11.4934 9.83176 11.1782 9.56779C10.8629 9.30381 10.3873 9.33731 10.1143 9.64283C8.4284 11.5389 5.46473 11.7493 3.51005 10.1158C2.56297 9.32257 1.99022 8.21978 1.89875 7.01247C1.80728 5.80248 2.20553 4.63135 3.02033 3.71481C3.83794 2.79693 4.975 2.24219 6.22183 2.15241C7.44051 2.06665 8.62401 2.43648 9.56264 3.1949L8.80554 3.52855C8.58883 3.62369 8.56068 3.91044 8.75348 4.04444L11.4244 5.89896C11.6749 6.07315 12.0253 5.91772 12.0549 5.62024L12.3743 2.44854C12.3983 2.21941 12.1562 2.05191 11.9409 2.14705ZM6.18946 3.66791C5.87987 3.66791 5.62797 3.91179 5.62797 4.21194V7.59134C5.62797 7.74677 5.76166 7.90221 6.02622 8.05094C6.07266 8.1099 6.1585 8.15546 6.22886 8.19298L8.31441 9.41771C8.40026 9.46595 8.49173 9.49007 8.5832 9.49007C8.62823 9.49007 8.67467 9.48337 8.71829 9.47131C8.84635 9.43379 8.95893 9.34401 9.03352 9.21806C9.18128 8.96882 9.06729 8.63517 8.78162 8.47437L6.74955 7.33406V4.21194C6.75096 3.91179 6.49906 3.66791 6.18946 3.66791Z" fill="currentColor"/>
</svg>