<svg xmlns="http://www.w3.org/2000/svg" width="20" height="20" viewBox="0 0 20 20" fill="none">
  <path d="M16.7963 6.64986C17.0406 6.87386 17.0693 7.2683 16.8603 7.53045C16.3773 8.13652 15.8217 8.68098 15.2059 9.15162L16.4694 10.5068C16.6923 10.7553 16.686 11.1504 16.4547 11.3902C16.4029 11.4455 16.3403 11.4896 16.2707 11.5197C16.2012 11.5498 16.1262 11.5654 16.0504 11.5654C15.9747 11.5654 15.8997 11.5498 15.8302 11.5197C15.7606 11.4896 15.698 11.4455 15.6462 11.3902L14.185 9.82361C13.5234 10.1988 12.8148 10.4844 12.078 10.6731L12.7535 12.6614C12.863 12.9858 12.7073 13.3439 12.4052 13.4622C12.1029 13.5801 11.769 13.4132 11.6591 13.0887L10.9136 10.8879C10.3034 10.9565 9.68754 10.9589 9.0768 10.8953L8.33166 13.0887C8.22176 13.4128 7.88786 13.5801 7.58547 13.4622C7.28342 13.3442 7.12768 12.9858 7.23757 12.6614L7.90816 10.6909C7.16508 10.506 6.44985 10.2231 5.78125 9.84986L4.34452 11.3898C4.29149 11.4465 4.22718 11.4913 4.15574 11.5215C4.08429 11.5517 4.00731 11.5666 3.92975 11.5652C3.8522 11.5637 3.77581 11.5461 3.70552 11.5133C3.63523 11.4805 3.5726 11.4333 3.52168 11.3748C3.41634 11.2548 3.35826 11.1005 3.35826 10.9408C3.35826 10.7811 3.41634 10.6268 3.52168 10.5068L4.75576 9.18312C4.15576 8.73026 3.6124 8.20687 3.13738 7.62425C2.93019 7.3607 2.96134 6.96661 3.20668 6.74436C3.44573 6.52806 3.80097 6.55256 4.01167 6.80001C5.51245 8.64028 7.68137 9.69447 9.96053 9.69132C12.3037 9.69132 14.4807 8.59233 15.9755 6.71881C16.1845 6.45631 16.552 6.42586 16.7963 6.64986Z" fill="currentColor"/>
</svg>