<svg width="12" height="12" viewBox="0 0 12 12" fill="none" xmlns="http://www.w3.org/2000/svg">
<mask id="mask0_51527_34168" style="mask-type:alpha" maskUnits="userSpaceOnUse" x="0" y="0" width="12" height="12">
<rect width="12" height="12" fill="#D9D9D9"/>
</mask>
<g mask="url(#mask0_51527_34168)">
<path fill-rule="evenodd" clip-rule="evenodd" d="M0.949747 1.05025C0.656854 1.34315 0.656854 1.81802 0.949747 2.11091L4.83883 6L0.949747 9.88909C0.656854 10.182 0.656854 10.6569 0.949747 10.9497C1.24264 11.2426 1.71751 11.2426 2.01041 10.9497L5.89949 7.06066L9.78858 10.9497C10.0815 11.2426 10.5563 11.2426 10.8492 10.9497C11.1421 10.6569 11.1421 10.182 10.8492 9.88909L6.96015 6L10.8492 2.11091C11.1421 1.81802 11.1421 1.34315 10.8492 1.05025C10.5563 0.757359 10.0815 0.757359 9.78858 1.05025L5.89949 4.93934L2.01041 1.05025C1.71751 0.757359 1.24264 0.757359 0.949747 1.05025Z" fill="currentColor"/>
</g>
</svg>
