<svg width="30" height="30" viewBox="0 0 30 30" fill="none" xmlns="http://www.w3.org/2000/svg">
<path d="M14.9805 3.73047C16.5 3.73047 17.9731 4.02766 19.3589 4.61377C20.6983 5.18028 21.9016 5.99172 22.9354 7.02552C23.9692 8.05929 24.7806 9.2626 25.3472 10.602C25.9333 11.9878 26.2305 13.4609 26.2305 14.9805C26.2305 16.5 25.9333 17.9731 25.3472 19.3589C24.7807 20.6983 23.9692 21.9016 22.9354 22.9354C21.9016 23.9692 20.6983 24.7806 19.3589 25.3472C17.9732 25.9333 16.5 26.2305 14.9805 26.2305C13.4609 26.2305 11.9878 25.9333 10.602 25.3472C9.2626 24.7807 8.05929 23.9692 7.02552 22.9354C5.99172 21.9016 5.18031 20.6983 4.61377 19.3589C4.02766 17.9732 3.73047 16.5 3.73047 14.9805C3.73047 13.4609 4.02766 11.9878 4.61377 10.602C5.18028 9.2626 5.99172 8.05929 7.02552 7.02552C8.05929 5.99172 9.2626 5.18031 10.602 4.61377C11.9878 4.02766 13.4609 3.73047 14.9805 3.73047ZM14.9805 1.85547C7.73172 1.85547 1.85547 7.73172 1.85547 14.9805C1.85547 22.2292 7.73172 28.1055 14.9805 28.1055C22.2292 28.1055 28.1055 22.2292 28.1055 14.9805C28.1055 7.73172 22.2292 1.85547 14.9805 1.85547Z" fill="currentColor"/>
<path d="M16.3258 15L20.6434 10.6825C21.0095 10.3163 21.0095 9.72275 20.6434 9.35662C20.2773 8.9905 19.6837 8.9905 19.3176 9.35662L15 13.6742L10.6825 9.35665C10.3163 8.99053 9.72275 8.99053 9.35662 9.35665C8.9905 9.72278 8.9905 10.3164 9.35662 10.6825L13.6742 15L9.35665 19.3176C8.99053 19.6837 8.99053 20.2773 9.35665 20.6434C9.5397 20.8265 9.77964 20.918 10.0196 20.918C10.2595 20.918 10.4994 20.8265 10.6825 20.6434L15 16.3258L19.3176 20.6434C19.5006 20.8265 19.7406 20.918 19.9805 20.918C20.2204 20.918 20.4603 20.8265 20.6434 20.6434C21.0095 20.2773 21.0095 19.6837 20.6434 19.3176L16.3258 15Z" fill="currentColor"/>
</svg>
