<svg width="16" height="16" viewBox="0 0 16 16" fill="currentColor" xmlns="http://www.w3.org/2000/svg">
  <g id="&#230;&#151;&#165;&#229;&#142;&#134;">
    <path id="Vector"
      d="M11 2.5C11 2.22 10.78 2 10.5 2C10.22 2 10 2.22 10 2.5V3H11V2.5ZM6 2.5C6 2.22 5.78 2 5.5 2C5.22 2 5 2.22 5 2.5V3H6V2.5ZM13 3H11V4.5C11 4.78 10.78 5 10.5 5C10.22 5 10 4.78 10 4.5V3H6V4.5C6 4.78 5.78 5 5.5 5C5.22 5 5 4.78 5 4.5V3H3C1.9 3 1 3.9 1 5V13C1 14.1 1.9 15 3 15H13C14.1 15 15 14.1 15 13V5C15 3.9 14.1 3 13 3ZM5.5 12H4.5C4.22 12 4 11.78 4 11.5C4 11.22 4.22 11 4.5 11H5.5C5.78 11 6 11.22 6 11.5C6 11.78 5.78 12 5.5 12ZM5.5 10H4.5C4.22 10 4 9.78 4 9.5C4 9.22 4.22 9 4.5 9H5.5C5.78 9 6 9.22 6 9.5C6 9.78 5.78 10 5.5 10ZM8.5 12H7.5C7.22 12 7 11.78 7 11.5C7 11.22 7.22 11 7.5 11H8.5C8.78 11 9 11.22 9 11.5C9 11.78 8.78 12 8.5 12ZM8.5 10H7.5C7.22 10 7 9.78 7 9.5C7 9.22 7.22 9 7.5 9H8.5C8.78 9 9 9.22 9 9.5C9 9.78 8.78 10 8.5 10ZM11.5 12H10.5C10.22 12 10 11.78 10 11.5C10 11.22 10.22 11 10.5 11H11.5C11.78 11 12 11.22 12 11.5C12 11.78 11.78 12 11.5 12ZM11.5 10H10.5C10.22 10 10 9.78 10 9.5C10 9.22 10.22 9 10.5 9H11.5C11.78 9 12 9.22 12 9.5C12 9.78 11.78 10 11.5 10ZM13.5 7H2.5C2.22 7 2 6.78 2 6.5C2 6.22 2.22 6 2.5 6H13.5C13.78 6 14 6.22 14 6.5C14 6.78 13.78 7 13.5 7Z"
      fill-opacity="0.5" />
  </g>
</svg>