<svg xmlns="http://www.w3.org/2000/svg" width="16" height="16" viewBox="0 0 16 16" fill="none">
<path fill-rule="evenodd" clip-rule="evenodd" d="M4.39286 2.82143V2.58929C4.39286 2.00893 4.50893 1.66071 4.625 1.42857C4.74107 1.19643 4.97321 0.964286 5.32143 0.732143C5.55357 0.616071 5.90179 0.5 6.48214 0.5H9.26786C9.84822 0.5 10.1964 0.616071 10.4286 0.732143C10.6607 0.848214 10.8929 1.08036 11.125 1.42857C11.2411 1.66071 11.3571 2.00893 11.3571 2.58929V2.82143H14.1696C14.5179 2.82143 14.75 3.05357 14.75 3.40179C14.75 3.75 14.5179 3.98214 14.1696 3.98214H1.58036C1.23214 3.98214 1 3.75 1 3.40179C1 3.05357 1.23214 2.82143 1.58036 2.82143H4.39286ZM5.55357 2.82147H10.1964V2.58933C10.1964 2.24112 10.1964 2.12504 10.0804 2.00897C10.0804 1.93724 10.036 1.90984 9.97475 1.87197C9.93689 1.84857 9.89255 1.82116 9.84822 1.77683C9.84822 1.66076 9.61607 1.66076 9.26786 1.66076H6.48214C6.13393 1.66076 6.01786 1.66076 5.90179 1.77683C5.83005 1.77683 5.80265 1.82116 5.76478 1.88243C5.74138 1.9203 5.71398 1.96464 5.66964 2.00897C5.55357 2.00897 5.55357 2.24112 5.55357 2.58933V2.82147ZM3.37535 12.5V5.99996C3.37535 5.69996 3.15035 5.49996 2.81285 5.49996C2.47535 5.49996 2.25035 5.69996 2.25035 5.99996V12.7C2.25035 13.6 2.36285 14 2.58785 14.4C2.81285 14.7 3.15035 15 3.48785 15.2C3.82535 15.4 4.16285 15.5 5.17535 15.5H10.5753C11.5878 15.5 11.9253 15.4 12.2628 15.2C12.7128 15 12.9378 14.8 13.1628 14.4C13.3878 14 13.5003 13.7 13.5003 12.7V5.99996C13.5003 5.69996 13.2753 5.49996 12.9378 5.49996C12.6003 5.49996 12.3753 5.69996 12.3753 5.99996V12.5V12.5C12.3753 13.4 12.3753 13.6 12.2628 13.9C12.2628 14.1 12.1503 14.2 11.9253 14.3C11.7003 14.5 11.4753 14.5 10.6878 14.5H5.17535C4.38785 14.5 4.16285 14.5 3.82535 14.2C3.71285 14.1 3.60035 14 3.48785 13.8C3.37535 13.6 3.37535 13.3 3.37535 12.5ZM6.13393 6.30353C6.48214 6.30353 6.71429 6.51186 6.71429 6.82436V12.0327C6.71429 12.3452 6.48214 12.5535 6.13393 12.5535C5.78571 12.5535 5.55357 12.3452 5.55357 12.0327V6.82436C5.55357 6.51186 5.78571 6.30353 6.13393 6.30353ZM10.1964 6.82436C10.1964 6.51186 9.96429 6.30353 9.61607 6.30353C9.26786 6.30353 9.03571 6.51186 9.03571 6.82436V12.0327C9.03571 12.3452 9.26786 12.5535 9.61607 12.5535C9.96429 12.5535 10.1964 12.3452 10.1964 12.0327V6.82436Z" fill="currentColor"/>
</svg>