<svg xmlns="http://www.w3.org/2000/svg" width="7" height="4" viewBox="0 0 7 4" fill="none">
  <path d="M-0.000641218 0.830951C-0.000895376 0.905648 0.0155908 0.979453 0.0476052 1.04694C0.0796195 1.11443 0.126349 1.17389 0.184359 1.22095L3.18436 3.63595C3.27383 3.70949 3.38605 3.74969 3.50186 3.74969C3.61767 3.74969 3.72989 3.70949 3.81936 3.63595L6.81936 1.13595C6.92147 1.05108 6.98568 0.929126 6.99787 0.796913C7.01006 0.6647 6.96923 0.533059 6.88436 0.430951C6.79949 0.328843 6.67753 0.264631 6.54532 0.252441C6.41311 0.240251 6.28147 0.281081 6.17936 0.365951L3.49936 2.60095L0.819358 0.440951C0.745966 0.379809 0.656596 0.340971 0.561822 0.329031C0.467047 0.317091 0.370835 0.33255 0.284571 0.373578C0.198308 0.414606 0.125602 0.479485 0.0750567 0.560541C0.0245115 0.641596 -0.00175701 0.735434 -0.000641218 0.830951Z" fill="currentColor" />
</svg>