<svg width="24" height="24" viewBox="0 0 24 24" fill="currentColor" xmlns="http://www.w3.org/2000/svg">
<path fill-rule="evenodd" clip-rule="evenodd" d="M2.97251 4H20.373C21.4375 4 22.3075 4.88841 22.3075 5.98013V6.3937L13.8356 15.0731C13.2592 15.6635 12.4911 15.9894 11.6741 15.9894C10.8585 15.9894 10.0904 15.6635 9.51267 15.0731L1.04214 6.3937V5.98013C1.04214 4.88841 1.90809 4 2.97251 4ZM1 16.8388V7.75277L5.62745 12.4942L1 16.8388ZM22.2667 7.75321V16.8128L17.6515 12.4821L22.2667 7.75321ZM13.1733 16.6276C13.6615 16.4203 14.1047 16.116 14.4773 15.7322L14.4786 15.7308L16.9663 13.1825L22.2667 18.1565V19.0199C22.2667 20.1116 21.3994 21 20.3336 21H2.93309C1.86731 21 1 20.1116 1 19.0185V18.183L6.3126 13.1951L8.7881 15.7322C9.54801 16.5106 10.5594 16.9395 11.6334 16.9395C12.1618 16.9408 12.6852 16.8348 13.1733 16.6276Z" />
</svg>
