<svg xmlns="http://www.w3.org/2000/svg" width="23" height="23" viewBox="0 0 23 23" fill="none">
  <g clip-path="url(#clip0_48659_17603)">
    <path d="M0.5 11.123C0.5 8.20567 1.65893 5.40777 3.72183 3.34487C5.78473 1.28197 8.58262 0.123047 11.5 0.123047C14.4174 0.123047 17.2153 1.28197 19.2782 3.34487C21.3411 5.40777 22.5 8.20567 22.5 11.123C22.5 14.0404 21.3411 16.8383 19.2782 18.9012C17.2153 20.9641 14.4174 22.123 11.5 22.123C8.58262 22.123 5.78473 20.9641 3.72183 18.9012C1.65893 16.8383 0.5 14.0404 0.5 11.123ZM2.07143 11.123C2.07143 13.6237 3.06479 16.0219 4.83299 17.7901C6.60119 19.5583 8.99939 20.5516 11.5 20.5516C14.0006 20.5516 16.3988 19.5583 18.167 17.7901C19.9352 16.0219 20.9286 13.6237 20.9286 11.123C20.9286 8.62243 19.9352 6.22424 18.167 4.45604C16.3988 2.68784 14.0006 1.69448 11.5 1.69448C8.99939 1.69448 6.60119 2.68784 4.83299 4.45604C3.06479 6.22424 2.07143 8.62243 2.07143 11.123Z" fill="currentColor" />
    <path d="M13.4204 11.1198L9.5201 15.0217C9.38307 15.1595 9.30615 15.3459 9.30615 15.5402C9.30615 15.7346 9.38307 15.921 9.5201 16.0588C9.65784 16.1953 9.84394 16.272 10.0379 16.272C10.2318 16.272 10.4179 16.1953 10.5557 16.0588L14.9714 11.6384C15.1084 11.5006 15.1853 11.3141 15.1853 11.1198C15.1853 10.9255 15.1084 10.739 14.9714 10.6012L10.5887 6.2138C10.4507 6.07715 10.2643 6.00049 10.0701 6.00049C9.87589 6.00049 9.68953 6.07715 9.55153 6.2138C9.4145 6.3516 9.33758 6.53803 9.33758 6.73237C9.33758 6.9267 9.4145 7.11314 9.55153 7.25094L13.422 11.1214L13.4204 11.1198Z" fill="currentColor" />
  </g>
</svg>