<svg width="24" height="24" viewBox="0 0 24 24" fill="currentColor" xmlns="http://www.w3.org/2000/svg">
<path d="M13.3173 10.9466V6.27842C13.0789 6.27842 12.8462 6.23354 12.6476 6.19987H12.5965C12.3411 6.23354 12.0289 6.27281 11.6713 6.30648V10.9466H2V7.22105C2 7.08352 2.02749 6.94735 2.0809 6.82037C2.13431 6.69339 2.21257 6.57809 2.3112 6.48111C2.40983 6.38412 2.52688 6.30737 2.65562 6.25525C2.78435 6.20314 2.92224 6.17669 3.06135 6.17743H7.46567C6.28513 5.93055 5.39405 5.43119 5.36567 4.49418C5.33162 3.41689 6.57459 1.65509 8.39081 2.05907C10.207 2.46305 11.5692 3.91065 12.5738 5.13381C13.584 3.88259 15.02 2.27228 16.9724 2.0198C18.607 1.81219 19.9578 3.42812 19.7819 4.48857C19.6343 5.41996 18.7319 5.93055 17.5797 6.17182H21.9273C22.0678 6.16957 22.2074 6.1951 22.3378 6.24689C22.4683 6.29869 22.5869 6.37571 22.6868 6.47343C22.7867 6.57116 22.8659 6.68763 22.9197 6.81601C22.9735 6.94439 23.0008 7.0821 23 7.22105V10.9466H13.3173ZM8.58945 3.02414C8.4293 2.94301 8.25414 2.8949 8.0746 2.88274C7.89507 2.87057 7.7149 2.8946 7.54505 2.95337C7.3752 3.01214 7.2192 3.10442 7.08652 3.22461C6.95385 3.3448 6.84726 3.4904 6.77324 3.65255C6.54054 4.02287 6.34189 4.48857 6.67108 4.83083C7.54513 5.71734 9.94594 5.65001 11.5295 5.48729C10.7808 4.4293 9.76796 3.58076 8.58945 3.02414ZM18.4594 4.82522C19.0838 4.0397 17.8635 2.40133 16.5581 3.0073C15.4097 3.60191 14.4108 4.44363 13.6351 5.47046C14.307 5.52841 14.982 5.54153 15.6557 5.50974C16.4786 5.50974 17.994 5.41996 18.4935 4.82522H18.4594ZM11.7338 21.9832H3.85594C3.60351 21.9832 3.36124 21.8848 3.18168 21.7094C3.00212 21.534 2.89974 21.2957 2.89676 21.0462V11.6648H11.7338V21.9832ZM22.0919 21.0462C22.0926 21.1712 22.0684 21.2951 22.0205 21.4108C21.9726 21.5264 21.9021 21.6316 21.813 21.7203C21.7238 21.8089 21.6178 21.8793 21.5011 21.9273C21.3843 21.9753 21.2591 22 21.1327 22H13.2549V11.6648H22.0919V21.0462Z"/>
</svg>
