<svg width="12" height="13" viewBox="0 0 12 13" fill="none" xmlns="http://www.w3.org/2000/svg">
<path d="M11.952 3.91934V3.91696H11.9507C11.8189 3.66238 11.555 3.48645 11.2466 3.48645H10.2743C10.6255 3.14455 10.8294 2.75338 10.8844 2.36382C11.0009 1.53531 10.4864 0.825305 9.60163 0.566981C9.44317 0.520944 9.28264 0.5 9.11698 0.5C7.58292 0.5 6.68719 2.51616 6.36785 3.36874H5.90782C5.55803 2.50393 4.69892 0.524447 3.16484 0.524447C2.99919 0.524447 2.83284 0.552631 2.68004 0.597387C1.79577 0.85725 1.28403 1.56538 1.39757 2.39423C1.45014 2.77707 1.65232 3.15342 1.98666 3.48647H0.835394C0.396696 3.48648 0.0410156 3.83951 0.0410156 4.27497V5.9773C0.0410156 6.41266 0.396696 6.76573 0.835406 6.76573H11.2466C11.6853 6.76573 12.041 6.41267 12.041 5.97731V4.27497C12.041 4.14618 12.0069 4.02659 11.952 3.91934ZM9.11698 1.66948C9.16001 1.66948 9.21627 1.67169 9.27064 1.68769C9.48621 1.75102 9.7491 1.88787 9.70606 2.20542C9.65102 2.61279 9.03104 3.22253 7.67502 3.30178C8.03706 2.4977 8.5891 1.66948 9.11698 1.66948ZM3.01145 1.71813C3.06059 1.69992 3.10963 1.69388 3.16486 1.69388C3.68638 1.69388 4.23261 2.5343 4.61308 3.33213C3.25071 3.25305 2.62139 2.6381 2.57576 2.22968C2.5418 1.92574 2.7844 1.76693 3.01145 1.71815V1.71813ZM1.15481 7.0609V8.91704C1.15464 8.92282 1.1531 8.92809 1.1531 8.93388V11.7026C1.1531 12.1382 1.50869 12.4911 1.9474 12.4911H4.17157V12.4948H5.38217V11.7407C5.38276 11.728 5.38602 11.7159 5.38602 11.7026V9.2156H5.38782V7.06088L1.15481 7.0609ZM6.76779 7.06054V8.91567C6.76779 8.9218 6.76608 8.92777 6.76608 8.93387V11.7026C6.76608 11.7036 6.76643 11.7043 6.76643 11.7051V12.495H7.97703V12.4911H10.205C10.6433 12.4911 10.999 12.1382 10.999 11.7026V9.21543H11.0011V7.06054H6.76779Z" fill="url(#paint0_linear_14715_4257)"/>
<defs>
<linearGradient id="paint0_linear_14715_4257" x1="6.04102" y1="0.5" x2="6.04102" y2="12.495" gradientUnits="userSpaceOnUse">
<stop stop-color="currentColor"/>
<stop offset="1" stop-color="currentColor" stop-opacity="0.85"/>
</linearGradient>
</defs>
</svg>
