<svg xmlns="http://www.w3.org/2000/svg" width="10" height="10" viewBox="0 0 10 10" fill="none">
  <path d="M3.43784 5.41823e-06C3.5781 -0.000622212 3.71312 0.0532989 3.81436 0.150378C3.91561 0.247457 3.97515 0.38009 3.98041 0.520259C3.98568 0.660427 3.93625 0.797152 3.84257 0.90155C3.74889 1.00595 3.61829 1.06984 3.47838 1.07973L3.43784 1.08109H1.83784C1.64508 1.08107 1.45958 1.15462 1.3192 1.28671C1.17882 1.41881 1.09413 1.59949 1.08243 1.7919L1.08108 1.83784V8.16216C1.08107 8.35492 1.15461 8.54042 1.28671 8.6808C1.4188 8.82118 1.59949 8.90586 1.79189 8.91757L1.83784 8.91892H8.16216C8.35492 8.91893 8.54041 8.84538 8.68079 8.71329C8.82118 8.5812 8.90586 8.40051 8.91756 8.20811L8.91891 8.16216V6.56216C8.91829 6.4219 8.97221 6.28688 9.06929 6.18564C9.16637 6.08439 9.299 6.02485 9.43917 6.01958C9.57934 6.01432 9.71606 6.06375 9.82046 6.15743C9.92486 6.25111 9.98875 6.3817 9.99864 6.52162L10 6.56216V8.16216C10 8.63841 9.81515 9.09607 9.48436 9.4387C9.15358 9.78133 8.70271 9.98218 8.22675 9.99892L8.16216 10H1.83784C1.36159 10 0.903928 9.81515 0.561297 9.48437C0.218666 9.15359 0.0178199 8.70271 0.0010811 8.22676L8.06673e-10 8.16216V1.83784C-1.41004e-05 1.36159 0.184847 0.903934 0.515631 0.561302C0.846414 0.218671 1.29729 0.0178251 1.77324 0.00108636L1.83784 5.41823e-06H3.43784ZM9.44998 0.00108636C9.58636 0.0010432 9.7177 0.0525474 9.8177 0.145275C9.91769 0.238002 9.97894 0.365098 9.98917 0.501086L9.99053 0.541627V3.26595C9.99115 3.40621 9.93723 3.54123 9.84015 3.64248C9.74307 3.74372 9.61044 3.80326 9.47027 3.80853C9.3301 3.81379 9.19338 3.76436 9.08898 3.67068C8.98458 3.577 8.92069 3.44641 8.9108 3.30649L8.90944 3.26595V1.73838L5.6662 4.98297C5.56776 5.08192 5.43486 5.13895 5.29532 5.14213C5.15578 5.14531 5.02042 5.09439 4.91758 5.00003C4.81473 4.90567 4.75237 4.77518 4.74355 4.63589C4.73473 4.49659 4.78013 4.35928 4.87026 4.2527L4.90188 4.21838L8.03647 1.08217H6.4662C6.32983 1.08221 6.19848 1.03071 6.09849 0.937979C5.99849 0.845251 5.93724 0.718155 5.92701 0.582167L5.92566 0.541627C5.92562 0.405255 5.97712 0.273906 6.06985 0.173911C6.16258 0.0739161 6.28967 0.0126656 6.42566 0.0024377L6.4662 0.00108636H9.44998Z" fill="currentColor"/>
</svg>