<svg width="24" height="24" viewBox="0 0 24 24" fill="currentColor" xmlns="http://www.w3.org/2000/svg">
<path fill-rule="evenodd" clip-rule="evenodd" d="M11.1271 4.36141L6.1886 9.19025L0.98851 14.2723C0.93779 14.3219 0.852368 14.3062 0.823004 14.2436C0.612117 13.7789 0.5 13.2674 0.5 12.7427C0.5 11.7482 0.895079 10.8164 1.61316 10.1143L9.30919 2.58649C10.7934 1.13784 13.2039 1.13784 14.6881 2.58649L22.3868 10.1169C23.1049 10.819 23.5 11.7508 23.5 12.7453C23.5 13.27 23.3879 13.7789 23.177 14.2462C23.1476 14.3088 23.0622 14.3245 23.0115 14.2749L17.8301 9.20852L12.8729 4.36141C12.6327 4.1265 12.3177 4.00904 12 4.00904C11.685 4.00904 11.3673 4.1265 11.1271 4.36141ZM3.43604 13.9125C3.43604 13.7141 3.51612 13.5236 3.66027 13.3826L11.6766 5.54426C11.8555 5.36938 12.1411 5.36938 12.32 5.54426L20.3417 13.3826C20.4858 13.5236 20.5659 13.7141 20.5659 13.9125V19.9342C20.5659 21.3489 19.3913 22.5 17.9418 22.5H15.1843C14.904 22.5 14.6798 22.2781 14.6798 22.0067V16.1834C14.6798 15.9171 14.3434 15.7527 14.0338 15.7527H9.96818C9.69857 15.7527 9.32218 15.8858 9.32218 16.1834V22.0067C9.32218 22.2807 9.09527 22.5 8.81765 22.5H6.06011C4.61059 22.5 3.43604 21.3515 3.43604 19.9342V13.9125Z"/>
</svg>
