<svg xmlns="http://www.w3.org/2000/svg" width="20" height="20" viewBox="0 0 20 20" fill="none">
<path d="M9.9125 15.625C5.12247 15.625 1.23926 14.226 1.23926 12.5V15.625C1.23926 17.351 5.12247 18.75 9.9125 18.75C14.7025 18.75 18.5857 17.351 18.5857 15.625V12.5C18.5857 14.226 14.7025 15.625 9.9125 15.625Z" fill="currentColor"/>
<path d="M9.9125 11.875C5.12247 11.875 1.23926 10.476 1.23926 8.75V11.875C1.23926 13.601 5.12247 15 9.9125 15C14.7025 15 18.5857 13.601 18.5857 11.875V8.75C18.5857 10.476 14.7025 11.875 9.9125 11.875Z" fill="currentColor"/>
<path d="M9.9125 8.125C5.12247 8.125 1.23926 6.72598 1.23926 5V8.125C1.23926 9.85098 5.12247 11.25 9.9125 11.25C14.7025 11.25 18.5857 9.85098 18.5857 8.125V5C18.5857 6.72598 14.7025 8.125 9.9125 8.125Z" fill="currentColor"/>
<path d="M1.23926 4.375C1.23926 5.2038 2.15304 5.99866 3.77959 6.58471C5.40614 7.17076 7.61221 7.5 9.9125 7.5C12.2128 7.5 14.4189 7.17076 16.0454 6.58471C17.672 5.99866 18.5857 5.2038 18.5857 4.375C18.5857 3.5462 17.672 2.75134 16.0454 2.16529C14.4189 1.57924 12.2128 1.25 9.9125 1.25C7.61221 1.25 5.40614 1.57924 3.77959 2.16529C2.15304 2.75134 1.23926 3.5462 1.23926 4.375Z" fill="currentColor"/>
</svg>