<svg xmlns="http://www.w3.org/2000/svg" width="34" height="35" viewBox="0 0 34 35" fill="currentColor">
<path fill-rule="evenodd" clip-rule="evenodd" d="M17.0002 8.18709C17.0002 4.17775 20.2503 0.924316 24.263 0.924316C24.263 4.93699 21.0095 8.18709 17.0002 8.18709ZM27.9589 10.9569C27.3961 11.0845 24.8955 11.6515 24.9288 16.5587H24.9254C24.9654 20.1617 28.7816 22.3163 28.8249 22.3362C28.8236 22.34 28.8216 22.3464 28.8188 22.3552C28.7467 22.5791 28.1623 24.3953 26.8136 26.3656C25.6048 28.1371 24.3494 29.8987 22.3713 29.9353C21.4183 29.9549 20.7825 29.6796 20.1212 29.3932C19.4307 29.0942 18.7123 28.7832 17.5761 28.7832C16.3837 28.7832 15.6305 29.1047 14.9052 29.4143C14.2773 29.6822 13.6703 29.9413 12.8175 29.9753C10.9061 30.0452 9.45084 28.0639 8.23206 26.299C5.73454 22.6959 3.82977 16.1124 6.39056 11.6669C7.66262 9.45905 9.93703 8.0671 12.4012 8.03047C13.4635 8.0116 14.4927 8.42358 15.3935 8.78421C16.0826 9.06006 16.6967 9.30587 17.1931 9.30587C17.6391 9.30587 18.2361 9.07455 18.9319 8.80495C20.0286 8.38 21.3709 7.85992 22.7543 8.0005C23.7 8.03713 26.3574 8.43007 28.0657 10.9276C28.0531 10.9356 28.016 10.944 27.9589 10.9569Z" />
</svg>