<svg width="25" height="25" viewBox="0 0 25 25" fill="currentColor" xmlns="http://www.w3.org/2000/svg">
<path fill-rule="evenodd" clip-rule="evenodd" d="M23.0825 5.61454H19.0827H18.5827V5.13729H20.5826V4.66005L18.5827 4.1828V3.70555L21.0826 2.2738H21.5826L23.0825 3.2283L21.5826 4.1828V4.66005L23.0825 5.13729V5.61454ZM21.6703 9.05337L21.5826 13.417L23.0825 8.64449C22.7492 8.32633 21.0826 7.69 18.5827 6.7355C15.6468 5.6145 13.583 4.8265 12.583 4.8265C11.5831 4.8265 9.18322 5.49465 7.5833 6.25825C5.98338 7.02185 3.25019 8.32633 2.08358 9.12174L3.5835 13.417V9.59899C4.55663 8.67009 5.74088 8.09988 7.44151 7.28103L7.5833 7.21275C9.22353 6.42265 11.0831 5.74569 12.583 5.74569C14.3847 5.9323 16.4872 6.81325 18.0118 7.45209L18.0119 7.4521L18.0121 7.45218C18.213 7.53637 18.4039 7.61636 18.5827 7.69C18.7952 7.77746 18.9983 7.86072 19.1921 7.94011C20.399 8.43476 21.2395 8.7792 21.6703 9.05337ZM20.5826 9.12176L14.5829 6.73551C13.083 6.25827 11.4215 6.335 10.313 6.73551C9.19072 7.14097 6.58336 8.16726 4.58346 9.599C4.58346 9.7653 4.5788 9.95651 4.57361 10.1695C4.53409 11.7902 4.46382 14.6717 6.18398 17.4328C7.41884 19.4149 10.8571 22.4612 12.5845 22.4612C14.5829 22.4612 17.5828 20.0985 19.0827 17.7122C20.2769 15.8123 20.4146 12.6015 20.5053 10.4884C20.5285 9.94742 20.5486 9.47842 20.5826 9.12176ZM6.58335 5.61454H6.08338H2.08358V5.13729L3.5835 4.66005V4.1828L2.08358 3.2283L3.5835 2.2738H4.08348L6.58335 3.70555V4.1828L4.58345 4.66005V5.13729H6.58335V5.61454ZM23.0825 20.3884H19.0827H18.5827V20.8657H20.5826V21.3429L18.5827 21.8202V22.2974L21.0826 23.7292H21.5826L23.0825 22.7747L21.5826 21.8202V21.3429L23.0825 20.8657V20.3884ZM6.58335 20.3884H6.08338H2.08358V20.8657L3.5835 21.3429V21.8202L2.08358 22.7747L3.5835 23.7292H4.08348L6.58335 22.2974V21.8202L4.58345 21.3429V20.8657H6.58335V20.3884ZM9.3778 13.7085L8.30968 12.8317L6.6648 14.4426L8.30968 15.8496L9.3778 14.8912L10.4673 15.7272L10.9373 15.2379L11.4713 15.7272L10.9373 16.4002L11.9413 17.1954L10.7664 18.5005L12.219 19.5812H13.0521L14.398 18.2966L13.3726 17.1954L14.398 16.2778L13.8639 15.7272L14.5048 15.0951L15.0602 15.6253L15.8292 14.8912L16.9401 15.8496L18.4995 14.2999L17.0469 12.8317L16.171 13.5658L15.0602 12.7297L14.5048 13.3211L13.6503 12.6074L14.2484 11.9141L13.2444 11.1596L14.0348 10.0788L12.689 8.71262L11.0868 10.242L11.9413 11.1596L10.9373 12.1792L11.4713 12.8317L10.9373 13.3211L10.1469 12.8317L9.3778 13.7085ZM12.4875 13.2529L11.5509 14.1469L12.4875 15.0409L13.424 14.1469L12.4875 13.2529Z"/>
</svg>
