<svg xmlns="http://www.w3.org/2000/svg" width="20" height="20" viewBox="0 0 20 20" fill="none">
<path d="M15.9358 2.08038H3.78613C2.39737 2.08038 1.26758 3.32254 1.26758 4.84937V12.707C1.26758 14.2338 2.39739 15.4759 3.78613 15.4759H4.18683V17.5416C4.18683 18.1613 4.64395 18.6655 5.20573 18.6655C5.40555 18.6655 5.6042 18.5971 5.77562 18.4709L9.97199 15.4759H15.9359C17.3246 15.4759 18.4545 14.2338 18.4545 12.707V4.84939C18.4544 3.32254 17.3246 2.08038 15.9358 2.08038ZM6.43894 7.95472C6.85259 7.95472 7.18794 8.32343 7.18794 8.77822C7.18794 9.23297 6.85259 9.6017 6.43894 9.6017C6.02536 9.6017 5.68992 9.23299 5.68992 8.77822C5.6899 8.32343 6.02536 7.95472 6.43894 7.95472ZM9.86101 9.6017C9.44736 9.6017 9.11199 9.23299 9.11199 8.77822C9.11199 8.32343 9.44736 7.95472 9.86101 7.95472C10.2746 7.95472 10.6099 8.32343 10.6099 8.77822C10.6099 9.23299 10.2746 9.6017 9.86101 9.6017ZM13.283 9.6017C12.8694 9.6017 12.534 9.23299 12.534 8.77822C12.534 8.32343 12.8694 7.95472 13.283 7.95472C13.6967 7.95472 14.032 8.32343 14.032 8.77822C14.032 9.23299 13.6967 9.6017 13.283 9.6017Z" fill="currentColor" />
</svg>