<svg xmlns="http://www.w3.org/2000/svg" width="20" height="20" viewBox="0 0 20 20" fill="none">
<g clip-path="url(#clip0_29910_3837)">
<path d="M8.60952 3.39999L5.37033 5.22499C5.2494 5.31173 5.10452 5.35796 4.95614 5.35713H1.41604C1.04048 5.35713 0.680308 5.50764 0.414749 5.77555C0.14919 6.04346 0 6.40682 0 6.7857L0 13.2143C0 13.5932 0.14919 13.9565 0.414749 14.2244C0.680308 14.4923 1.04048 14.6428 1.41604 14.6428H4.95614C5.10331 14.6428 5.24685 14.689 5.36679 14.775L8.60598 16.6C8.81758 16.753 9.06689 16.8441 9.32651 16.8635C9.58613 16.8828 9.84601 16.8296 10.0776 16.7097C10.3092 16.5897 10.5035 16.4077 10.6392 16.1835C10.7749 15.9594 10.8468 15.7019 10.8469 15.4393V4.5607C10.8463 4.29866 10.7743 4.04182 10.6388 3.81829C10.5033 3.59475 10.3094 3.41313 10.0784 3.29329C9.84742 3.17345 9.58821 3.12002 9.32914 3.13884C9.07006 3.15766 8.82111 3.248 8.60952 3.39999ZM15.7818 17.3393C15.6326 17.3395 15.4871 17.2922 15.3661 17.2041C15.2451 17.116 15.1548 16.9916 15.1081 16.8486C15.0614 16.7056 15.0607 16.5514 15.106 16.408C15.1513 16.2646 15.2404 16.1393 15.3605 16.05C16.3028 15.3535 17.0692 14.4427 17.5975 13.3916C18.1257 12.3405 18.401 11.1785 18.401 9.99999C18.401 8.82147 18.1257 7.65953 17.5975 6.60839C17.0692 5.55725 16.3028 4.6465 15.3605 3.94999C15.2854 3.89441 15.2219 3.82446 15.1736 3.74413C15.1254 3.66379 15.0932 3.57465 15.0791 3.48179C15.065 3.38894 15.0691 3.29418 15.0913 3.20293C15.1134 3.11168 15.1532 3.02573 15.2083 2.94999C15.2634 2.87424 15.3327 2.81019 15.4123 2.76148C15.492 2.71277 15.5803 2.68036 15.6724 2.6661C15.7644 2.65184 15.8583 2.656 15.9488 2.67837C16.0392 2.70073 16.1244 2.74084 16.1995 2.79642C17.3218 3.62555 18.2345 4.70989 18.8637 5.96147C19.4929 7.21306 19.8208 8.59664 19.8208 9.99999C19.8208 11.4033 19.4929 12.7869 18.8637 14.0385C18.2345 15.2901 17.3218 16.3744 16.1995 17.2036C16.078 17.2923 15.9317 17.3398 15.7818 17.3393Z" fill="currentColor" />
<path d="M13.7743 14.3821C13.6363 14.3816 13.5015 14.3405 13.3864 14.2638C13.2713 14.187 13.181 14.078 13.1264 13.9502C13.0719 13.8223 13.0556 13.6812 13.0795 13.5441C13.1034 13.407 13.1665 13.28 13.261 13.1786C14.0625 12.3177 14.5086 11.181 14.5086 10C14.5086 8.81895 14.0625 7.6823 13.261 6.82143C13.1971 6.75319 13.1471 6.67291 13.1139 6.58519C13.0808 6.49746 13.065 6.40401 13.0677 6.31015C13.073 6.12061 13.1527 5.94095 13.2893 5.81071C13.4259 5.68047 13.6082 5.61031 13.7961 5.61567C13.8891 5.61833 13.9807 5.63944 14.0657 5.67781C14.1506 5.71617 14.2272 5.77104 14.2912 5.83928C15.3416 6.96548 15.9265 8.4536 15.9265 10C15.9265 11.5464 15.3416 13.0345 14.2912 14.1607C14.2245 14.2312 14.1443 14.2872 14.0554 14.3253C13.9665 14.3634 13.8709 14.3827 13.7743 14.3821Z" fill="currentColor" />
</g>
<defs>
<clipPath id="clip0_29910_3837">
<rect width="19.8246" height="20" fill="currentColor"/>
</clipPath>
</defs>
</svg>