<svg xmlns="http://www.w3.org/2000/svg" width="20" height="20" viewBox="0 0 20 20" fill="none">
  <path fill-rule="evenodd" clip-rule="evenodd" d="M17.1238 10.2797C17.1281 10.2878 17.1429 10.3597 17.1429 10.4454C17.1429 10.5243 17.1298 10.591 17.1207 10.637L17.1196 10.643L17.12 10.6425C17.1219 10.6425 17.1172 10.6997 17.0943 10.7663C17.0915 10.7744 17.0881 10.783 17.0843 10.792C17.0753 10.823 17.0624 10.8577 17.0419 10.8949C15.7396 13.7467 12.904 15.6818 10.0003 15.6818C7.09851 15.6818 4.2629 13.7453 2.9439 10.863C2.93676 10.8473 2.92914 10.8258 2.922 10.803C2.90914 10.7735 2.89914 10.7435 2.89248 10.7125H2.89295C2.88486 10.6758 2.87819 10.6358 2.87629 10.6087C2.87105 10.5887 2.8601 10.4925 2.8601 10.4925C2.85629 10.4587 2.85629 10.4325 2.85962 10.3987C2.85962 10.3987 2.87057 10.2882 2.88295 10.2325C2.88057 10.2459 2.88105 10.193 2.90724 10.1173C2.91029 10.1093 2.91346 10.1014 2.91676 10.0935C2.9239 10.0673 2.93486 10.0378 2.95057 10.0063C4.26195 7.14074 7.09756 5.20605 10.0003 5.20605C12.9035 5.20605 15.7391 7.14217 17.0567 10.0235C17.0653 10.0416 17.0734 10.0644 17.0805 10.0878C17.0848 10.0983 17.0891 10.1087 17.0929 10.1187C17.1067 10.1597 17.121 10.2368 17.1238 10.2797ZM16.1786 10.4878C16.1791 10.4854 16.1801 10.483 16.1805 10.4806C16.181 10.4782 16.1815 10.4759 16.1819 10.4735C16.1833 10.4663 16.1846 10.4592 16.1867 10.452C16.1844 10.4425 16.182 10.424 16.1796 10.4049C16.1782 10.4006 16.1767 10.3963 16.1758 10.392C16.1748 10.3898 16.1741 10.3871 16.1732 10.384C16.1728 10.3826 16.1724 10.3812 16.172 10.3797C15.003 7.85595 12.5264 6.1584 10.0003 6.1584C7.47516 6.1584 4.99811 7.85453 3.8253 10.3821L3.81958 10.4011C3.81816 10.4125 3.81625 10.4235 3.81387 10.434L3.81339 10.4401C3.81435 10.4468 3.8153 10.4535 3.81625 10.4587C3.81648 10.461 3.81693 10.4638 3.81743 10.467C3.81799 10.4705 3.81861 10.4745 3.81911 10.4787C3.82197 10.4868 3.82435 10.4954 3.82673 10.504C5.01049 13.0396 7.48135 14.7295 10.0003 14.7295C12.5254 14.7295 15.0006 13.0343 16.1725 10.5082C16.1738 10.5028 16.1754 10.4979 16.1769 10.4933C16.1775 10.4914 16.1781 10.4896 16.1786 10.4878ZM7.61935 10.444C7.61935 9.13116 8.68741 8.06311 10.0002 8.06311C11.313 8.06311 12.3811 9.13116 12.3811 10.444C12.3811 11.7568 11.313 12.8248 10.0002 12.8248C8.68741 12.8248 7.61935 11.7568 7.61935 10.444ZM8.5717 10.444C8.5717 11.2316 9.21263 11.8725 10.0002 11.8725C10.7878 11.8725 11.4287 11.2316 11.4287 10.444C11.4287 9.65638 10.7878 9.01545 10.0002 9.01545C9.21263 9.01545 8.5717 9.65638 8.5717 10.444Z" fill="currentColor"/>
</svg>