<svg xmlns="http://www.w3.org/2000/svg" width="16" height="16" viewBox="0 0 16 16" fill="none">
<path fill-rule="evenodd" clip-rule="evenodd" d="M13.091 13.9504H2.90226C2.62691 13.9504 2.38137 13.8985 2.17227 13.7962C1.82338 13.6454 1.52638 13.3956 1.31802 13.0777C1.10967 12.7598 0.999103 12.3877 1.00002 12.0077V6.7886C0.998421 6.41213 1.10698 6.04342 1.31232 5.72789C1.51766 5.41235 1.81081 5.16377 2.15567 5.01276C2.2187 4.96023 2.37731 4.81891 2.54388 4.67047C3.43298 3.87829 5.51535 2.02298 6.813 1.31384C7.19327 1.10604 7.62003 0.99807 8.05338 1.00003C8.48672 1.00198 8.91248 1.1138 9.29087 1.32502C10.5617 2.03434 12.517 3.81424 13.4568 4.66979C13.6235 4.8223 13.7821 4.96599 13.8465 5.02022C14.191 5.17158 14.4837 5.42034 14.6886 5.73588C14.8935 6.05142 15.0018 6.41998 15 6.79622V12.0153C15.0019 12.3973 14.8905 12.7713 14.6798 13.0901C14.4692 13.4088 14.1688 13.6579 13.8165 13.8059C13.6107 13.9013 13.366 13.9504 13.091 13.9504ZM8.04134 1.71984C7.7325 1.72017 7.42872 1.79826 7.158 1.9469C5.9389 2.61269 3.91319 4.41606 3.03564 5.19729L3.02308 5.20847C2.75667 5.44586 2.64291 5.54672 2.57949 5.59659L7.71738 9.81395L7.73433 9.83343C7.76761 9.86938 7.8078 9.89826 7.85249 9.91835C7.89717 9.93843 7.94545 9.94932 7.99443 9.95035C8.10339 9.94527 8.20201 9.90257 8.26555 9.83174L8.28656 9.80852L13.5932 5.69776C13.5712 5.68713 13.5488 5.67716 13.5261 5.66785L13.5071 5.65938C13.4375 5.62549 13.4124 5.60482 12.971 5.20305C12.1237 4.43121 10.1369 2.62335 8.93807 1.95453C8.66425 1.80111 8.35572 1.72032 8.04185 1.71984H8.04134ZM14.1242 6.19731L10.2083 9.23138L13.9613 12.8409C14.0034 12.7947 14.0421 12.7452 14.0769 12.6927C14.2099 12.4918 14.2801 12.2558 14.2786 12.0148V6.79571C14.2797 6.58572 14.2262 6.37961 14.1242 6.19731ZM9.63269 9.6774L13.3088 13.2129C13.2421 13.2242 13.169 13.2301 13.091 13.2301H2.90226C2.74724 13.2301 2.61497 13.206 2.50858 13.1584L6.20808 9.50739L7.22072 10.3386C7.32158 10.4436 7.44261 10.5272 7.57655 10.5843C7.71049 10.6414 7.85458 10.6709 8.00019 10.671H8.00612L8.01138 10.6709C8.30385 10.661 8.57971 10.5419 8.7739 10.3428L9.63269 9.6774ZM5.64813 9.04779L1.97793 6.03532C1.9591 6.05937 1.94114 6.08419 1.9241 6.10973C1.79001 6.3107 1.71905 6.54717 1.72035 6.78877V12.0078C1.7196 12.2484 1.78974 12.4838 1.92201 12.6847C1.92747 12.693 1.93302 12.7012 1.93867 12.7094L5.64813 9.04779Z" fill="currentColor" />
<path d="M2.17227 13.7962L2.21628 13.7063L2.21195 13.7044L2.17227 13.7962ZM1.31802 13.0777L1.40166 13.0228H1.40166L1.31802 13.0777ZM1.00002 12.0077L1.10002 12.0079V12.0077H1.00002ZM1.00002 6.7886H1.10002L1.10002 6.78817L1.00002 6.7886ZM1.31232 5.72789L1.2285 5.67334H1.2285L1.31232 5.72789ZM2.15567 5.01276L2.19578 5.10436L2.20878 5.09867L2.21968 5.08958L2.15567 5.01276ZM2.54388 4.67047L2.47735 4.59581L2.47735 4.59581L2.54388 4.67047ZM6.813 1.31384L6.76505 1.22608L6.76504 1.22608L6.813 1.31384ZM8.05338 1.00003L8.05383 0.900027L8.05338 1.00003ZM9.29087 1.32502L9.24213 1.41234L9.24213 1.41234L9.29087 1.32502ZM13.4568 4.66979L13.5243 4.596L13.5241 4.59585L13.4568 4.66979ZM13.8465 5.02022L13.7821 5.09671L13.7931 5.10598L13.8063 5.11177L13.8465 5.02022ZM14.6886 5.73588L14.6047 5.79034L14.6886 5.73588ZM15 6.79622L14.9 6.79574V6.79622H15ZM15 12.0153H14.9L14.9 12.0158L15 12.0153ZM14.6798 13.0901L14.5964 13.0349L14.6798 13.0901ZM13.8165 13.8059L13.7778 13.7136L13.7745 13.7151L13.8165 13.8059ZM7.158 1.9469L7.20593 2.03467L7.20613 2.03456L7.158 1.9469ZM8.04134 1.71984V1.61984L8.04123 1.61984L8.04134 1.71984ZM3.03564 5.19729L3.10214 5.27198L3.10214 5.27198L3.03564 5.19729ZM3.02308 5.20847L2.95659 5.13378L2.95656 5.13381L3.02308 5.20847ZM2.57949 5.59659L2.51768 5.51798L2.41984 5.59491L2.51605 5.67388L2.57949 5.59659ZM7.71738 9.81395L7.79284 9.74833L7.78733 9.74199L7.78083 9.73665L7.71738 9.81395ZM7.73433 9.83343L7.65883 9.89908L7.66095 9.90138L7.73433 9.83343ZM7.85249 9.91835L7.81149 10.0096L7.81149 10.0096L7.85249 9.91835ZM7.99443 9.95035L7.99232 10.0506L7.99909 10.0502L7.99443 9.95035ZM8.26555 9.83174L8.19141 9.76463L8.19112 9.76496L8.26555 9.83174ZM8.28656 9.80852L8.22532 9.72947L8.21835 9.73487L8.21242 9.74142L8.28656 9.80852ZM13.5932 5.69776L13.6545 5.77681L13.7822 5.67788L13.6367 5.60769L13.5932 5.69776ZM13.5261 5.66785L13.4853 5.75921L13.4882 5.76039L13.5261 5.66785ZM13.5071 5.65938L13.4633 5.74935L13.4664 5.75069L13.5071 5.65938ZM12.971 5.20305L12.9036 5.27698L12.9037 5.27701L12.971 5.20305ZM8.93807 1.95453L8.88919 2.04177L8.88935 2.04186L8.93807 1.95453ZM8.04185 1.71984L8.042 1.61984H8.04185V1.71984ZM14.1242 6.19731L14.2114 6.14846L14.1547 6.04715L14.0629 6.11826L14.1242 6.19731ZM10.2083 9.23138L10.1471 9.15233L10.0556 9.22323L10.139 9.30346L10.2083 9.23138ZM13.9613 12.8409L13.892 12.9129L13.966 12.9841L14.0352 12.9083L13.9613 12.8409ZM14.0769 12.6927L14.1602 12.7479L14.0769 12.6927ZM14.2786 12.0148H14.1786L14.1786 12.0154L14.2786 12.0148ZM14.2786 6.79571L14.1786 6.7952V6.79571H14.2786ZM9.63269 9.6774L9.702 9.60532L9.63973 9.54543L9.57144 9.59835L9.63269 9.6774ZM13.3088 13.2129L13.3256 13.3115L13.521 13.2783L13.3781 13.1408L13.3088 13.2129ZM2.50858 13.1584L2.43834 13.0872L2.33424 13.19L2.46774 13.2497L2.50858 13.1584ZM6.20808 9.50739L6.27152 9.43009L6.20192 9.37297L6.13783 9.43621L6.20808 9.50739ZM7.22072 10.3386L7.29336 10.2688L7.28417 10.2613L7.22072 10.3386ZM7.57655 10.5843L7.61578 10.4923H7.61578L7.57655 10.5843ZM8.00019 10.671L8.00012 10.771H8.00019V10.671ZM8.00612 10.671V10.7711L8.00935 10.771L8.00612 10.671ZM8.01138 10.6709L8.01461 10.7708L8.01474 10.7708L8.01138 10.6709ZM8.7739 10.3428L8.71206 10.263L8.70231 10.273L8.7739 10.3428ZM5.64813 9.04779L5.71838 9.11896L5.79741 9.04095L5.71157 8.97049L5.64813 9.04779ZM1.97793 6.03532L2.04138 5.95802L1.96227 5.89309L1.89919 5.97368L1.97793 6.03532ZM1.9241 6.10973L2.00728 6.16523L2.00728 6.16523L1.9241 6.10973ZM1.72035 6.78877H1.82035L1.82035 6.78823L1.72035 6.78877ZM1.72035 12.0078L1.82035 12.0081V12.0078H1.72035ZM1.92201 12.6847L1.83848 12.7397L1.83848 12.7397L1.92201 12.6847ZM1.93867 12.7094L1.8565 12.7664L1.92428 12.8641L2.00892 12.7805L1.93867 12.7094ZM2.90226 14.0504H13.091V13.8504H2.90226V14.0504ZM2.12831 13.886C2.35339 13.9962 2.61444 14.0504 2.90226 14.0504V13.8504C2.63938 13.8504 2.40936 13.8009 2.21624 13.7064L2.12831 13.886ZM1.23439 13.1325C1.45347 13.4667 1.76575 13.7294 2.13259 13.888L2.21195 13.7044C1.88102 13.5613 1.5993 13.3244 1.40166 13.0228L1.23439 13.1325ZM0.900018 12.0074C0.899057 12.4071 1.01531 12.7982 1.23439 13.1325L1.40166 13.0228C1.20402 12.7213 1.09915 12.3684 1.10002 12.0079L0.900018 12.0074ZM0.900017 6.7886V12.0077H1.10002V6.7886H0.900017ZM1.2285 5.67334C1.01252 6.00523 0.89834 6.39305 0.900018 6.78902L1.10002 6.78817C1.0985 6.43122 1.20144 6.08161 1.39613 5.78243L1.2285 5.67334ZM2.11555 4.92116C1.75283 5.07999 1.44448 5.34145 1.2285 5.67334L1.39613 5.78243C1.59083 5.48324 1.86879 5.24754 2.19578 5.10436L2.11555 4.92116ZM2.47735 4.59581C2.30983 4.74509 2.15303 4.88479 2.09165 4.93594L2.21968 5.08958C2.28437 5.03567 2.44478 4.89273 2.61041 4.74513L2.47735 4.59581ZM6.76504 1.22608C6.10724 1.58557 5.25594 2.23205 4.4618 2.88371C3.66611 3.53665 2.92186 4.19976 2.47735 4.59581L2.6104 4.74513C3.055 4.349 3.79649 3.68837 4.58867 3.03832C5.3824 2.387 6.22111 1.75125 6.86095 1.40159L6.76504 1.22608ZM8.05383 0.900027C7.60358 0.897995 7.16016 1.01018 6.76505 1.22608L6.86095 1.40159C7.22639 1.2019 7.63649 1.09815 8.05292 1.10003L8.05383 0.900027ZM9.33961 1.2377C8.94646 1.01824 8.50408 0.902059 8.05383 0.900027L8.05292 1.10003C8.46936 1.1019 8.87851 1.20936 9.24213 1.41234L9.33961 1.2377ZM13.5241 4.59585C13.0543 4.16815 12.3291 3.50798 11.5622 2.86589C10.7966 2.22498 9.98393 1.59732 9.3396 1.2377L9.24213 1.41234C9.86868 1.76204 10.669 2.37899 11.4338 3.01924C12.1972 3.65833 12.9195 4.31588 13.3895 4.74374L13.5241 4.59585ZM13.9109 4.94372C13.8485 4.89114 13.6917 4.74914 13.5243 4.596L13.3893 4.74358C13.5554 4.89546 13.7158 5.04084 13.7821 5.09671L13.9109 4.94372ZM14.7725 5.68141C14.5569 5.34952 14.2491 5.08788 13.8868 4.92867L13.8063 5.11177C14.1329 5.25529 14.4104 5.49115 14.6047 5.79034L14.7725 5.68141ZM15.1 6.7967C15.1019 6.40096 14.988 6.0133 14.7725 5.68141L14.6047 5.79034C14.7991 6.08953 14.9017 6.439 14.9 6.79574L15.1 6.7967ZM15.1 12.0153V6.79622H14.9V12.0153H15.1ZM14.7633 13.1452C14.9848 12.81 15.102 12.4166 15.1 12.0148L14.9 12.0158C14.9018 12.378 14.7961 12.7327 14.5964 13.0349L14.7633 13.1452ZM13.8553 13.8981C14.2257 13.7424 14.5417 13.4804 14.7633 13.1452L14.5964 13.0349C14.3967 13.3371 14.1118 13.5733 13.7778 13.7137L13.8553 13.8981ZM13.091 14.0504C13.3776 14.0504 13.6372 13.9992 13.8586 13.8966L13.7745 13.7151C13.5841 13.8033 13.3543 13.8504 13.091 13.8504V14.0504ZM7.20613 2.03456C7.46213 1.894 7.7494 1.82016 8.04145 1.81984L8.04123 1.61984C7.71561 1.62019 7.39531 1.70252 7.10987 1.85924L7.20613 2.03456ZM3.10214 5.27198C3.54097 4.88131 4.26544 4.23638 5.03224 3.60606C5.8007 2.97438 6.60549 2.36258 7.20593 2.03467L7.11007 1.85914C6.49141 2.19701 5.67379 2.8198 4.90524 3.45156C4.13502 4.08468 3.40786 4.73204 2.96915 5.1226L3.10214 5.27198ZM3.08957 5.28317L3.10214 5.27198L2.96915 5.1226L2.95659 5.13378L3.08957 5.28317ZM2.6413 5.67519C2.70785 5.62287 2.82482 5.51907 3.08961 5.28314L2.95656 5.13381C2.68852 5.37264 2.57798 5.47057 2.51768 5.51798L2.6413 5.67519ZM2.51605 5.67388L7.65393 9.89124L7.78083 9.73665L2.64294 5.51929L2.51605 5.67388ZM7.64192 9.87956L7.65886 9.89905L7.80979 9.76782L7.79284 9.74833L7.64192 9.87956ZM7.66095 9.90138C7.70336 9.94718 7.75456 9.98396 7.81149 10.0096L7.89349 9.82714C7.86104 9.81255 7.83187 9.79159 7.8077 9.76549L7.66095 9.90138ZM7.81149 10.0096C7.86842 10.0351 7.92992 10.049 7.99232 10.0503L7.99654 9.85038C7.96098 9.84963 7.92593 9.84172 7.89349 9.82714L7.81149 10.0096ZM7.99909 10.0502C8.13005 10.0441 8.25562 9.99256 8.33999 9.89852L8.19112 9.76496C8.1484 9.81257 8.07672 9.84641 7.98977 9.85046L7.99909 10.0502ZM8.33969 9.89884L8.36071 9.87563L8.21242 9.74142L8.19141 9.76463L8.33969 9.89884ZM8.3478 9.88758L13.6545 5.77681L13.532 5.6187L8.22532 9.72947L8.3478 9.88758ZM13.4882 5.76039C13.509 5.76893 13.5296 5.77808 13.5498 5.78782L13.6367 5.60769C13.6128 5.59619 13.5886 5.58539 13.564 5.57532L13.4882 5.76039ZM13.4664 5.75069L13.4853 5.75917L13.5669 5.57654L13.5479 5.56807L13.4664 5.75069ZM12.9037 5.27701C13.1237 5.47728 13.2419 5.58435 13.3137 5.64537C13.3881 5.70858 13.4188 5.72761 13.4634 5.7493L13.5509 5.56946C13.5258 5.55726 13.5092 5.54901 13.4432 5.49297C13.3747 5.43474 13.2597 5.33059 13.0383 5.1291L12.9037 5.27701ZM8.88935 2.04186C9.47963 2.37116 10.2696 2.98471 11.0221 3.61673C11.7728 4.24734 12.48 4.89103 12.9036 5.27698L13.0383 5.12913C12.6147 4.74323 11.9049 4.09707 11.1507 3.46358C10.3982 2.8315 9.59537 2.20671 8.98679 1.8672L8.88935 2.04186ZM8.0417 1.81984C8.3385 1.82029 8.63026 1.89669 8.88919 2.04177L8.98695 1.86729C8.69824 1.70553 8.37294 1.62035 8.042 1.61984L8.0417 1.81984ZM8.04134 1.81984H8.04185V1.61984H8.04134V1.81984ZM14.0629 6.11826L10.1471 9.15233L10.2696 9.31043L14.1854 6.27636L14.0629 6.11826ZM14.0307 12.7688L10.2776 9.15931L10.139 9.30346L13.892 12.9129L14.0307 12.7688ZM13.9935 12.6375C13.9616 12.6857 13.9261 12.7311 13.8875 12.7734L14.0352 12.9083C14.0808 12.8583 14.1226 12.8048 14.1602 12.7479L13.9935 12.6375ZM14.1786 12.0154C14.18 12.2365 14.1156 12.4531 13.9935 12.6375L14.1602 12.7479C14.3043 12.5304 14.3803 12.275 14.3786 12.0141L14.1786 12.0154ZM14.1786 6.79571V12.0148H14.3786V6.79571H14.1786ZM14.0369 6.24617C14.1306 6.41342 14.1796 6.60253 14.1786 6.7952L14.3786 6.79623C14.3798 6.56891 14.3219 6.3458 14.2114 6.14846L14.0369 6.24617ZM9.56337 9.74947L13.2395 13.285L13.3781 13.1408L9.702 9.60532L9.56337 9.74947ZM13.292 13.1143C13.2316 13.1246 13.1641 13.1301 13.091 13.1301V13.3301C13.1739 13.3301 13.2526 13.3239 13.3256 13.3115L13.292 13.1143ZM13.091 13.1301H2.90226V13.3301H13.091V13.1301ZM2.90226 13.1301C2.75689 13.1301 2.63946 13.1074 2.54942 13.0671L2.46774 13.2497C2.59048 13.3046 2.73759 13.3301 2.90226 13.3301V13.1301ZM2.57882 13.2296L6.27832 9.57857L6.13783 9.43621L2.43834 13.0872L2.57882 13.2296ZM7.28417 10.2613L6.27152 9.43009L6.14463 9.58469L7.15728 10.4159L7.28417 10.2613ZM7.61578 10.4923C7.49422 10.4405 7.38439 10.3646 7.29285 10.2693L7.1486 10.4078C7.25878 10.5226 7.391 10.6139 7.53732 10.6763L7.61578 10.4923ZM8.00026 10.571C7.86811 10.5709 7.73734 10.5442 7.61578 10.4923L7.53732 10.6763C7.68364 10.7387 7.84105 10.7709 8.00012 10.771L8.00026 10.571ZM8.00612 10.571H8.00019V10.771H8.00612V10.571ZM8.00815 10.5709L8.00289 10.5711L8.00935 10.771L8.01461 10.7708L8.00815 10.5709ZM8.70231 10.273C8.52703 10.4527 8.27603 10.5619 8.00802 10.5709L8.01474 10.7708C8.33166 10.7601 8.63239 10.6311 8.84549 10.4126L8.70231 10.273ZM9.57144 9.59835L8.71265 10.2638L8.83515 10.4218L9.69393 9.75644L9.57144 9.59835ZM5.71157 8.97049L2.04138 5.95802L1.91449 6.11262L5.58468 9.12509L5.71157 8.97049ZM2.00728 6.16523C2.02292 6.1418 2.0394 6.11903 2.05667 6.09696L1.89919 5.97368C1.8788 5.99972 1.85936 6.02658 1.84092 6.05423L2.00728 6.16523ZM1.82035 6.78823C1.81916 6.56657 1.88426 6.34962 2.00728 6.16523L1.84092 6.05423C1.69576 6.27179 1.61895 6.52777 1.62035 6.7893L1.82035 6.78823ZM1.82035 12.0078V6.78877H1.62035V12.0078H1.82035ZM2.00553 12.6297C1.88407 12.4452 1.81966 12.229 1.82035 12.0081L1.62035 12.0075C1.61954 12.2677 1.69541 12.5224 1.83848 12.7397L2.00553 12.6297ZM2.02083 12.6524C2.01565 12.6449 2.01055 12.6374 2.00553 12.6297L1.83848 12.7397C1.84439 12.7487 1.85039 12.7576 1.8565 12.7664L2.02083 12.6524ZM5.57788 8.97662L1.86842 12.6382L2.00892 12.7805L5.71838 9.11896L5.57788 8.97662Z" fill="currentColor" />
</svg>