<svg width="9" height="8" viewBox="0 0 9 8" fill="currentColor" xmlns="http://www.w3.org/2000/svg">
  <path id="Union" fill-rule="evenodd" clip-rule="evenodd"
    d="M1.62224 1.69784C1.62224 2.63526 2.38267 3.39568 3.32009 3.39568C4.2575 3.39568 5.01915 2.63526 5.01915 1.69784C5.01915 0.760428 4.25872 0 3.32009 0C2.38145 0 1.62224 0.759208 1.62224 1.69784ZM4.13292 3.49143H2.79882C1.25233 3.49143 0 4.74375 0 6.28902C0 6.75529 0.378383 7.13367 0.84587 7.13489H5.92597C6.29215 7.13489 6.58997 6.83829 6.58997 6.47089V5.94726C6.58875 4.5924 5.489 3.49143 4.13292 3.49143ZM5.23512 1.68373C5.23634 2.1146 5.08132 2.53204 4.80059 2.86038C4.76885 2.897 4.77007 2.95193 4.80425 2.98732C5.30103 3.50119 6.11882 3.51462 6.63269 3.01906C6.8878 2.7725 7.02939 2.43317 7.02694 2.0792C7.02206 1.37736 6.45082 0.802465 5.74898 0.795141C5.55735 0.7927 5.36816 0.83298 5.19484 0.913539C5.13503 0.940392 5.10573 1.00874 5.1277 1.071C5.19972 1.26629 5.23634 1.47379 5.23512 1.68373ZM5.59228 3.59375H5.96578C7.21811 3.59375 8.23486 4.6105 8.23486 5.86649V6.34984C8.23486 6.68795 7.96023 6.96258 7.62212 6.96258H6.73231C6.71644 6.96258 6.7018 6.9577 6.68959 6.94916C6.65663 6.92474 6.64931 6.87836 6.6725 6.84541C6.75306 6.73067 6.79578 6.59396 6.79578 6.4536V5.91409C6.79578 5.01818 6.32463 4.1894 5.55322 3.7329C5.53003 3.71947 5.5166 3.69506 5.5166 3.66821C5.51782 3.62671 5.55078 3.59375 5.59228 3.59375Z" />
</svg>