<svg width="12" height="12" viewBox="0 0 12 12" fill="none" xmlns="http://www.w3.org/2000/svg">
  <g id="Layer 2">
    <g id="arrow-ios-back">
      <path id="Vector"
        d="M5.08492 9.50002C5.15962 9.50027 5.23342 9.48378 5.30091 9.45177C5.3684 9.41975 5.42786 9.37303 5.47492 9.31502L7.88992 6.31502C7.96346 6.22555 8.00366 6.11333 8.00366 5.99752C8.00366 5.8817 7.96346 5.76948 7.88992 5.68002L5.38992 2.68002C5.30505 2.57791 5.18309 2.5137 5.05088 2.50151C4.91867 2.48932 4.78703 2.53015 4.68492 2.61502C4.58281 2.69989 4.5186 2.82184 4.50641 2.95405C4.49422 3.08627 4.53505 3.21791 4.61992 3.32002L6.85492 6.00002L4.69492 8.68002C4.63378 8.75341 4.59494 8.84278 4.583 8.93755C4.57106 9.03233 4.58652 9.12854 4.62755 9.2148C4.66857 9.30107 4.73345 9.37377 4.81451 9.42432C4.89556 9.47486 4.9894 9.50113 5.08492 9.50002Z"
        fill="currentColor" />
    </g>
  </g>
</svg>