<svg xmlns="http://www.w3.org/2000/svg" width="20" height="20" viewBox="0 0 20 20" fill="none">
<path d="M10 18.7113C5.1969 18.7113 1.28876 14.8038 1.28876 10C1.28876 5.1969 5.19687 1.28876 10 1.28876C14.8038 1.28876 18.7113 5.19626 18.7113 10C18.7113 14.8038 14.8038 18.7113 10 18.7113ZM10 2.53876C5.88565 2.53876 2.53876 5.88562 2.53876 10C2.53876 14.1138 5.88562 17.4613 10 17.4613C14.1138 17.4613 17.4613 14.1144 17.4613 10C17.4613 5.88562 14.1138 2.53876 10 2.53876Z" fill="currentColor" />
<path d="M9.0625 5.93751C9.0625 6.45528 9.48224 6.87502 10 6.87502C10.5178 6.87502 10.9375 6.45528 10.9375 5.93751C10.9375 5.41974 10.5178 5 10 5C9.48224 5 9.0625 5.41974 9.0625 5.93751Z" fill="currentColor" />
<path d="M10 15C9.655 15 9.375 14.7207 9.375 14.375V8.75002C9.375 8.405 9.655 8.125 10 8.125C10.345 8.125 10.625 8.405 10.625 8.75002V14.375C10.625 14.7207 10.345 15 10 15Z" fill="currentColor" />
</svg>