<svg width="20" height="20" viewBox="0 0 20 20" fill="none" xmlns="http://www.w3.org/2000/svg">
<g clip-path="url(#clip0_36614_141)">
<path d="M1.47534 15.3027H3.75474C3.94848 15.3027 4.14034 15.2648 4.31934 15.1912C4.49834 15.1177 4.66098 15.0098 4.79798 14.8739C4.93498 14.738 5.04365 14.5766 5.1178 14.399C5.19194 14.2214 5.2301 14.0311 5.2301 13.8389L5.28528 2.46381C5.28528 2.07558 5.12984 1.70326 4.85316 1.42874C4.57647 1.15422 4.20121 1 3.80992 1H1.53052C1.13923 1 0.763962 1.15422 0.487278 1.42874C0.210593 1.70326 0.0551529 2.07558 0.0551529 2.46381L-2.57492e-05 13.8389C-0.00014089 14.0311 0.037942 14.2215 0.112045 14.3992C0.186149 14.5768 0.294819 14.7382 0.431842 14.8742C0.568866 15.0101 0.731555 15.1179 0.910607 15.1915C1.08966 15.265 1.28156 15.3028 1.47534 15.3027ZM16.19 15.3027H18.4694C18.6632 15.3027 18.855 15.2648 19.034 15.1912C19.213 15.1177 19.3757 15.0099 19.5127 14.8739C19.6497 14.738 19.7583 14.5766 19.8325 14.399C19.9066 14.2214 19.9448 14.0311 19.9448 13.8389L20 7.87891C20 7.49068 19.8445 7.11836 19.5678 6.84384C19.2912 6.56932 18.9159 6.4151 18.5246 6.4151H16.2452C15.8539 6.4151 15.4787 6.56932 15.202 6.84384C14.9253 7.11836 14.7698 7.49068 14.7698 7.87891L14.7147 13.8389C14.7146 14.0311 14.7527 14.2215 14.8269 14.3991C14.901 14.5767 15.0097 14.7381 15.1467 14.8741C15.2837 15.01 15.4463 15.1178 15.6254 15.1914C15.8044 15.2649 15.9963 15.3027 16.19 15.3027ZM8.99997 14.8243C9.45147 15.3101 9.86225 15.3027 9.86225 15.3027C10.485 15.3027 10.8476 14.8243 10.8476 14.8243L12.5721 13.0689C13.6122 11.752 12.4215 10.618 12.4215 10.618C11.0941 9.49088 9.92794 10.5432 9.92794 10.5432C8.44688 9.44352 7.3582 10.6927 7.3582 10.6927C6.26339 11.9623 7.3582 13.1706 7.3582 13.1706L8.99997 14.8243ZM19.5476 17.1023H0.452361C0.332383 17.1023 0.21732 17.1496 0.132483 17.2338C0.0476459 17.318 -1.54455e-05 17.4321 -1.54455e-05 17.5512C-1.54455e-05 17.6702 0.0476459 17.7844 0.132483 17.8685C0.21732 17.9527 0.332383 18 0.452361 18H19.5476C19.6676 18 19.7826 17.9527 19.8675 17.8685C19.9523 17.7844 20 17.6702 20 17.5512C20 17.4321 19.9523 17.318 19.8675 17.2338C19.7826 17.1496 19.6676 17.1023 19.5476 17.1023Z" fill="white"/>
</g>
<defs>
<clipPath id="clip0_36614_141">
<rect width="20" height="20" fill="white"/>
</clipPath>
</defs>
</svg>
