<svg width="24" height="23" viewBox="0 0 24 23" fill="currentColor" xmlns="http://www.w3.org/2000/svg">
<g filter="url(#filter0_d_33437_967)">
<path d="M22 17.3042C22 17.5832 21.9523 17.8438 21.8568 18.0861C21.7614 18.3284 21.6256 18.5413 21.4493 18.7249C21.2731 18.9084 21.0675 19.0516 20.8326 19.1544C20.5977 19.2572 20.3407 19.3086 20.0617 19.3086H4.07048C3.79148 19.3086 3.52717 19.2572 3.27753 19.1544C3.0279 19.0516 2.80764 18.9084 2.61674 18.7249C2.42584 18.5413 2.27533 18.3284 2.1652 18.0861C2.05507 17.8438 2 17.5832 2 17.3042V6.31299C2 5.75499 2.19457 5.28142 2.5837 4.89228C2.97283 4.50315 3.4464 4.30858 4.00441 4.30858H19.9956C20.5536 4.30858 21.0272 4.50315 21.4163 4.89228C21.8054 5.28142 22 5.75499 22 6.31299V9.30858H17C16.442 9.30858 15.9684 9.49948 15.5793 9.88127C15.1902 10.2631 14.9956 10.733 14.9956 11.291C15.0103 11.6728 15.091 12.0105 15.2379 12.3042C15.3554 12.5538 15.5499 12.7814 15.8216 12.987C16.0932 13.1926 16.486 13.2954 17 13.2954H22V17.3042ZM19.0044 3.29537H9.00441C9.79736 2.88421 10.5463 2.48773 11.2511 2.10594C11.8678 1.78289 12.4772 1.45983 13.0793 1.13678C13.6814 0.813724 14.1512 0.564091 14.489 0.38788C15.0029 0.108879 15.4618 -0.0196089 15.8656 0.00241754C16.2695 0.024444 16.6109 0.0941943 16.8899 0.211669C17.2129 0.373196 17.4919 0.586118 17.7269 0.850435L19.0044 3.29537ZM16.0088 11.291C16.0088 11.012 16.1043 10.777 16.2952 10.5861C16.486 10.3952 16.721 10.2998 17 10.2998C17.279 10.2998 17.514 10.3952 17.7048 10.5861C17.8957 10.777 17.9912 11.012 17.9912 11.291C17.9912 11.57 17.8957 11.8086 17.7048 12.0068C17.514 12.2051 17.279 12.3042 17 12.3042C16.721 12.3042 16.486 12.2051 16.2952 12.0068C16.1043 11.8086 16.0088 11.57 16.0088 11.291Z" />
</g>
<defs>
<filter id="filter0_d_33437_967" x="0.392857" y="0" width="23.2143" height="22.5229" filterUnits="userSpaceOnUse" color-interpolation-filters="sRGB">
<feFlood flood-opacity="0" result="BackgroundImageFix"/>
<feColorMatrix in="SourceAlpha" type="matrix" values="0 0 0 0 0 0 0 0 0 0 0 0 0 0 0 0 0 0 127 0" result="hardAlpha"/>
<feOffset dy="1.60714"/>
<feGaussianBlur stdDeviation="0.803571"/>
<feComposite in2="hardAlpha" operator="out"/>
<feColorMatrix type="matrix" values="0 0 0 0 0 0 0 0 0 0 0 0 0 0 0 0 0 0 0.25 0"/>
<feBlend mode="normal" in2="BackgroundImageFix" result="effect1_dropShadow_33437_967"/>
<feBlend mode="normal" in="SourceGraphic" in2="effect1_dropShadow_33437_967" result="shape"/>
</filter>
</defs>
</svg>
