<svg width="32" height="33" viewBox="0 0 32 33" fill="none" xmlns="http://www.w3.org/2000/svg">
<path d="M0 16.5C-3.13096e-08 18.6012 0.413852 20.6817 1.21793 22.6229C2.022 24.5641 3.20055 26.328 4.68629 27.8137C6.17203 29.2994 7.93586 30.478 9.87706 31.2821C11.8183 32.0861 13.8988 32.5 16 32.5C18.1012 32.5 20.1817 32.0861 22.1229 31.2821C24.0641 30.478 25.828 29.2994 27.3137 27.8137C28.7994 26.328 29.978 24.5641 30.7821 22.6229C31.5861 20.6817 32 18.6012 32 16.5C32 12.2565 30.3143 8.18687 27.3137 5.18629C24.3131 2.18571 20.2435 0.5 16 0.5C11.7565 0.5 7.68687 2.18571 4.68629 5.18629C1.68571 8.18687 0 12.2565 0 16.5Z" fill="currentColor" fill-opacity="0.13"/>
<path d="M17.8525 17.0793H13.9889C10.6824 17.0793 8 19.8285 8 23.2176V23.6131C8 24.9982 10.6807 25 13.9889 25H17.8525C21.159 25 23.8414 24.949 23.8414 23.6131V23.2176C23.8414 19.8285 21.159 17.0793 17.8525 17.0793ZM11.2414 11.6793C11.2414 14.2636 13.3364 16.3586 15.9207 16.3586C18.505 16.3586 20.6 14.2636 20.6 11.6793C20.6 9.09499 18.505 7 15.9207 7C13.3364 7 11.2414 9.09499 11.2414 11.6793Z" fill="white" fill-opacity="0.8"/>
</svg>
