<svg xmlns="http://www.w3.org/2000/svg" width="20" height="20" viewBox="0 0 20 20" fill="none">
  <path fill-rule="evenodd" clip-rule="evenodd" d="M16.0051 5.26477C16.0051 4.99547 16.2243 4.77715 16.4946 4.77715C16.765 4.77715 16.9842 4.99547 16.9842 5.26477V7.77143C16.9842 8.04074 16.765 8.25905 16.4946 8.25905H13.9857C13.7132 8.25905 13.4923 8.03903 13.4923 7.76762C13.4923 7.49621 13.7132 7.27619 13.9857 7.27619H15.2861C14.0564 4.89061 11.3844 3.61014 8.74559 4.14185C6.1068 4.67356 4.14458 6.88781 3.94245 9.5619C3.92244 9.81623 3.70901 10.0122 3.4529 10.0114C3.32292 10.0017 3.20219 9.94075 3.11747 9.84207C3.03276 9.74339 2.99106 9.61513 3.00161 9.48571C3.2123 6.43932 5.39091 3.88503 8.37508 3.18563C11.3592 2.48623 14.4527 3.80491 16.0051 6.4381V5.26477ZM16.1369 10.119C16.2359 10.0346 16.3647 9.99305 16.4946 10.0036H16.5176C16.6502 10.0055 16.7763 10.0609 16.8671 10.1571C16.9579 10.2533 17.0057 10.3821 16.9995 10.514C16.7888 13.5604 14.6102 16.1147 11.626 16.8141C8.64184 17.5135 5.54835 16.1948 3.99601 13.5616V14.7426C3.99601 15.014 3.77512 15.234 3.50264 15.234C3.23017 15.234 3.00928 15.014 3.00928 14.7426V12.2436C3.00928 12.1142 3.06085 11.9902 3.15266 11.8988C3.24447 11.8073 3.36898 11.7559 3.49882 11.7559H6.00772C6.2802 11.7559 6.50109 11.976 6.50109 12.2474C6.50109 12.5188 6.2802 12.7388 6.00772 12.7388H4.62324C5.85294 15.1244 8.52491 16.4048 11.1637 15.8731C13.8025 15.3414 15.7647 13.1272 15.9669 10.4531C15.9766 10.3236 16.0378 10.2033 16.1369 10.119Z" fill="currentColor"/>
</svg>