<svg width="22" height="22" viewBox="0 0 22 22" fill="none" xmlns="http://www.w3.org/2000/svg">
<path fill-rule="evenodd" clip-rule="evenodd" d="M10.494 2.90562C11.5468 2.83218 12.6086 2.91087 13.6495 3.13948C13.5412 3.13231 13.4329 3.13482 13.3256 3.14697C13.0479 3.18613 12.7733 3.24317 12.5032 3.31776C12.1009 3.41846 11.71 3.56 11.3359 3.74041C10.8866 3.97275 10.4678 4.26274 10.0889 4.60389C9.63038 4.99976 9.2351 5.46913 8.91695 5.99544C8.59315 6.53015 8.31384 7.23851 8.079 8.12051C7.8344 9.08036 7.70947 10.0728 7.70725 11.0734L9.15861 11.0787C9.20778 11.0724 9.25791 11.0756 9.30653 11.088C9.40246 11.1137 9.49623 11.1484 9.5867 11.1916C9.70242 11.2422 9.80394 11.324 9.88068 11.4285C9.94977 11.5246 9.97372 11.68 9.95303 11.8907C9.91198 12.16 9.81755 12.4158 9.67575 12.6417L6.82292 16.7232C6.81444 16.74 6.80231 16.7544 6.78747 16.7653L6.67167 16.8681C6.61628 16.9173 6.55749 16.9623 6.49574 17.0027C6.42619 17.0454 6.35234 17.0803 6.27538 17.1067C6.19377 17.138 6.10557 17.1479 6.01829 17.1356C5.92035 17.118 5.8259 17.0813 5.73983 17.0277C5.62376 16.9566 5.5176 16.8687 5.42462 16.7667L2.09047 12.2947L2.06213 12.2234C2.04857 12.1773 2.03862 12.1303 2.03237 12.0828C2.01994 12.0079 2.01198 11.9324 2.00853 11.8568C2.00677 11.7751 2.01641 11.6939 2.03715 11.6159C2.05769 11.5311 2.0925 11.4514 2.13998 11.3802C2.19967 11.2989 2.27718 11.2341 2.36626 11.1908C2.48467 11.13 2.61201 11.0894 2.74363 11.0705L4.1902 11.0879C4.20314 9.83834 4.43825 8.60902 4.88353 7.46277C5.91661 4.68371 7.78676 3.16466 10.494 2.90562ZM10.7474 19.2459C9.84789 19.2453 8.94848 19.1338 8.0677 18.9138L8.06891 18.9082C8.15742 18.9098 8.27153 18.9067 8.4121 18.8993C8.68788 18.8709 8.96128 18.825 9.23081 18.7619C9.63492 18.6756 10.028 18.5448 10.4037 18.3718C10.8552 18.1491 11.2785 17.8705 11.6648 17.5419C12.1357 17.1556 12.5461 16.6955 12.8823 16.1769C13.2302 15.646 13.5282 14.9464 13.7761 14.0781C14.0355 13.1278 14.1793 12.1437 14.2041 11.1488L12.7487 11.1075C12.7284 11.1006 12.7071 11.0975 12.686 11.0983C12.6246 11.09 12.5641 11.0753 12.5052 11.0545C12.4263 11.0322 12.3508 10.9977 12.2812 10.952C12.2083 10.899 12.1405 10.8385 12.079 10.7714C12.0047 10.6958 11.9633 10.5917 11.9652 10.4849C11.9667 10.3491 11.9804 10.2141 12.0063 10.0818C12.0589 9.87718 12.1501 9.68676 12.2747 9.52158L15.2274 5.52634C15.2463 5.51927 15.2627 5.50648 15.2745 5.48956C15.3074 5.4508 15.3437 5.41528 15.3827 5.38342C15.4399 5.33325 15.5024 5.29007 15.5692 5.2547C15.6411 5.21619 15.7166 5.18525 15.7947 5.16233C15.8764 5.13678 15.9628 5.1299 16.0483 5.14215C16.1462 5.15975 16.2406 5.19635 16.3266 5.25004C16.4389 5.31911 16.5375 5.41054 16.6167 5.51897L19.8498 10.0691C19.865 10.1082 19.8777 10.1482 19.8878 10.1889C19.9034 10.2769 19.9124 10.3659 19.9145 10.4551C19.9239 10.5748 19.9103 10.6947 19.8746 10.8075C19.8305 10.9277 19.7552 11.0318 19.657 11.1083C19.5159 11.2111 19.349 11.2699 19.1752 11.278L17.7263 11.2202L17.7422 11.2275C17.6847 12.5952 17.3702 13.9297 16.8167 15.155C15.6162 17.8435 13.593 19.2071 10.7474 19.2459Z" fill="currentColor" />
</svg>
