<svg width="20" height="20" viewBox="0 0 20 20" fill="none" xmlns="http://www.w3.org/2000/svg">
<path d="M8.71318 3.46774C11.4001 3.47203 13.647 5.51067 13.9117 8.1844C14.1766 10.8581 12.373 13.298 9.73944 13.8291C7.10561 14.3604 4.49753 12.8104 3.70535 10.243C2.91318 7.67556 4.19399 4.92556 6.66899 3.88011C7.31571 3.60654 8.01098 3.46629 8.71318 3.46774ZM8.71318 2.25562C5.14298 2.25562 2.24854 5.15006 2.24854 8.72026C2.24854 12.2905 5.14298 15.1849 8.71318 15.1849C12.2834 15.1849 15.1778 12.2905 15.1778 8.72026C15.1778 5.15006 12.2834 2.25562 8.71318 2.25562ZM17.1374 17.7506C17.0578 17.7507 16.9789 17.7351 16.9054 17.7046C16.8318 17.6741 16.765 17.6293 16.7089 17.5728L13.6382 14.5021C13.4086 14.2642 13.4119 13.8862 13.6455 13.6523C13.8793 13.4185 14.2574 13.4152 14.495 13.645L17.5657 16.7157C17.6504 16.8005 17.7081 16.9085 17.7315 17.026C17.7548 17.1435 17.7429 17.2653 17.697 17.3761C17.6513 17.4869 17.5737 17.5816 17.4741 17.6483C17.3745 17.7149 17.2573 17.7505 17.1374 17.7506Z" fill="currentColor" />
</svg>
