<svg xmlns="http://www.w3.org/2000/svg" width="18" height="18" viewBox="0 0 18 18" fill="none">
  <path fill-rule="evenodd" clip-rule="evenodd" d="M9 18.0001C4.02947 18.0001 0 13.9707 0 9.00012C0 4.02959 4.02947 0.00012207 9 0.00012207C13.9705 0.00012207 18 4.02959 18 9.00012C18 13.9707 13.9705 18.0001 9 18.0001ZM9 12.3243C8.44767 12.3243 8 12.772 8 13.3243C8 13.8767 8.44767 14.3243 9 14.3243C9.55233 14.3243 10 13.8767 10 13.3243C10 12.772 9.55233 12.3243 9 12.3243ZM9 3.6759C9.55233 3.6759 10 4.12357 10 4.6759V9.82405C10 10.3764 9.55233 10.8241 9 10.8241C8.44767 10.8241 8 10.3764 8 9.82405V4.6759C8 4.12357 8.44767 3.6759 9 3.6759Z" fill="currentColor" />
</svg>