<svg xmlns="http://www.w3.org/2000/svg" width="12" height="13" viewBox="0 0 12 13" fill="none">
  <path d="M6.0002 1.69922C3.3302 1.69922 1.2002 3.82922 1.2002 6.49922C1.2002 9.16922 3.3302 11.2992 6.0002 11.2992C8.6702 11.2992 10.8002 9.16922 10.8002 6.49922C10.8002 3.82922 8.6702 1.69922 6.0002 1.69922ZM5.5382 3.57722C5.6642 3.45122 5.7722 3.36722 5.9762 3.36722C6.2042 3.34922 6.4142 3.45722 6.4982 3.61922C6.59419 3.73322 6.6482 3.98522 6.6242 4.13522C6.6242 4.17722 6.5942 4.45922 6.5822 4.53722L6.4142 6.66722C6.4142 6.87722 6.3722 7.08722 6.2882 7.24922C6.2462 7.37522 6.1202 7.45922 5.9522 7.45922C5.8262 7.45922 5.7002 7.37522 5.6582 7.24922C5.5742 7.03922 5.5322 6.87122 5.5322 6.66722L5.4182 4.57922C5.3762 4.20122 5.3762 4.32722 5.3762 4.11722C5.3762 3.91322 5.4182 3.74522 5.5382 3.57722ZM6.4622 9.46322C6.3362 9.58922 6.1682 9.63122 6.0422 9.63122C5.8742 9.63122 5.7062 9.58922 5.5802 9.46322C5.4542 9.33722 5.3702 9.16922 5.3702 8.96522C5.3702 8.79722 5.4122 8.62922 5.5382 8.50322C5.6642 8.37722 5.8322 8.29322 6.0002 8.29322C6.1682 8.29322 6.3362 8.37722 6.4622 8.50322C6.5882 8.62922 6.6302 8.79722 6.6302 8.96522C6.6242 9.16922 6.5822 9.33722 6.4622 9.46322Z" fill="currentColor"/>
</svg>