<svg width="17" height="15" viewBox="0 0 17 15" fill="none" xmlns="http://www.w3.org/2000/svg">
  <path fill-rule="evenodd" clip-rule="evenodd" d="M9.96094 0.498955C9.96094 0.0845138 9.48427 -0.148605 9.15712 0.10583L5.53975 2.91933C4.09826 4.04048 2.3242 4.64917 0.498047 4.64917C0.222992 4.64917 0 4.87216 0 5.14722V9.79565C0 10.0707 0.222992 10.2937 0.498047 10.2937H3.31531C3.31538 10.2937 3.31543 10.2938 3.31543 10.2938C3.31543 10.2939 3.31545 10.2939 3.31547 10.2939L9.15712 14.8374C9.48427 15.0919 9.96094 14.8587 9.96094 14.4443V0.498955ZM11.5215 1.99292C14.5423 1.99292 17 4.45058 17 7.47144C17 10.4923 14.5423 12.95 11.5215 12.95C11.2464 12.95 11.0234 12.727 11.0234 12.4519C11.0234 12.1768 11.2464 11.9539 11.5215 11.9539C13.9931 11.9539 16.0039 9.94304 16.0039 7.47144C16.0039 4.99983 13.9931 2.98901 11.5215 2.98901C11.2464 2.98901 11.0234 2.76602 11.0234 2.49097C11.0234 2.21591 11.2464 1.99292 11.5215 1.99292ZM11.5215 3.98511C13.4438 3.98511 15.0078 5.54907 15.0078 7.47144C15.0078 9.3938 13.4438 10.9578 11.5215 10.9578C11.2464 10.9578 11.0234 10.7348 11.0234 10.4597C11.0234 10.1847 11.2464 9.96167 11.5215 9.96167C12.8946 9.96167 14.0117 8.84455 14.0117 7.47144C14.0117 6.09832 12.8946 4.9812 11.5215 4.9812C11.2464 4.9812 11.0234 4.75821 11.0234 4.48315C11.0234 4.2081 11.2464 3.98511 11.5215 3.98511ZM11.5215 5.97729C12.3454 5.97729 13.0156 6.64757 13.0156 7.47144C13.0156 8.29531 12.3454 8.96558 11.5215 8.96558C11.2464 8.96558 11.0234 8.74258 11.0234 8.46753C11.0234 8.19247 11.2464 7.96948 11.5215 7.96948C11.7961 7.96948 12.0195 7.74606 12.0195 7.47144C12.0195 7.19681 11.7961 6.97339 11.5215 6.97339C11.2464 6.97339 11.0234 6.7504 11.0234 6.47534C11.0234 6.20029 11.2464 5.97729 11.5215 5.97729Z" fill="currentColor"/>
</svg>